<svg width="44" height="48" viewBox="0 0 44 48" fill="none" xmlns="http://www.w3.org/2000/svg">
<path fill-rule="evenodd" clip-rule="evenodd" d="M20.4598 47.8268C20.952 47.9368 21.464 48 22 48C22.536 48 23.048 47.9368 23.5402 47.8268C24.0351 47.716 24.5214 47.5547 24.999 47.3603C25.4452 47.1783 25.8808 46.9658 26.3069 46.7387C26.7607 46.497 27.1708 46.259 27.5665 46.0255L27.5661 46.0248C28.6804 45.3637 29.8735 44.692 31.0924 44.0061C33.8158 42.4734 36.6682 40.868 38.9064 39.2357L38.9187 39.2269C40.217 38.3444 41.4936 37.4625 42.4276 35.9595C43.3692 34.444 43.9893 32.2691 43.987 28.7751L44 24.0001L43.9917 19.2249H43.99C43.99 12.2227 41.4565 10.4994 38.857 8.73105L38.8554 8.73035L38.8549 8.73082L38.2432 8.31102L27.5661 1.97524L27.5665 1.97431C27.1708 1.74073 26.7605 1.50274 26.3066 1.26103C25.8806 1.03418 25.4452 0.821954 24.999 0.640149C24.5217 0.445341 24.0353 0.283969 23.5404 0.173214C23.0483 0.0631558 22.536 0 22 0C21.464 0 20.9517 0.0631558 20.4596 0.173214C19.9644 0.283969 19.4783 0.445341 19.001 0.640149C18.555 0.821721 18.1194 1.03394 17.6934 1.26079C17.2546 1.49438 16.8387 1.73585 16.4337 1.97524L5.75662 8.31102L5.14509 8.73082L5.14463 8.73035L5.14278 8.73128C2.54253 10.4999 0.00834528 12.2239 0.0127497 19.2249L0 24.0001L0.00811346 28.7751H0.00996797C0.00996797 32.271 0.630532 34.4457 1.57169 35.9595C2.50636 37.4625 3.78296 38.3444 5.08135 39.2269L5.0934 39.2357C7.33063 40.8669 10.1819 42.4718 12.9041 44.004C14.1244 44.6908 15.3187 45.363 16.4337 46.0248C16.8384 46.2637 17.2541 46.5052 17.6931 46.739C18.1192 46.9661 18.5548 47.1783 19.001 47.3603C19.4783 47.5547 19.9647 47.716 20.4598 47.8268Z" fill="#0EA57A"/>
<path fill-rule="evenodd" clip-rule="evenodd" d="M20.7838 29.3771C20.9561 29.3771 21.0953 29.5373 21.0953 29.7268C21.0953 29.9162 20.9561 30.0765 20.7838 30.0765C20.6048 30.0765 20.4656 29.9162 20.4656 29.7268C20.4656 29.5373 20.6048 29.3771 20.7838 29.3771ZM23.2295 13.9891L24.8401 15.7596H33.5493C33.7945 15.7596 34 15.9781 34 16.2477V23.1621C34 23.4317 33.7945 23.6503 33.5493 23.6503H33.3173V35.5118C33.3173 35.7814 33.1185 36 32.8732 36H25.3372H18.4573H11.1268C10.8815 36 10.6761 35.7814 10.6761 35.5118V23.6503H10.4441C10.1988 23.6503 10 23.4317 10 23.1621V16.2477C10 15.9781 10.1988 15.7596 10.4441 15.7596H19.1599L20.7705 13.9891H20.7639C20.6645 13.9381 20.565 13.8652 20.4855 13.7778C20.3132 13.5883 20.2071 13.326 20.2071 13.0419C20.2071 12.7577 20.3132 12.4954 20.4855 12.306C20.6578 12.1166 20.8964 12 21.1549 12C21.3405 12 21.493 12.1676 21.493 12.3716C21.493 12.5683 21.3405 12.7359 21.1549 12.7359C21.082 12.7359 21.0091 12.7723 20.9627 12.8233H20.9561C20.9097 12.8816 20.8766 12.9545 20.8766 13.0419C20.8766 13.1293 20.9097 13.2022 20.9561 13.2532L20.9627 13.2605C21.0091 13.3115 21.082 13.3479 21.1549 13.3479H21.3538L21.6852 12.9836C21.8575 12.7942 22.1425 12.7942 22.3148 12.9836L22.6462 13.3479H22.8384C22.918 13.3479 22.9909 13.3115 23.0373 13.2605V13.2532C23.0903 13.2022 23.1168 13.1293 23.1168 13.0419C23.1168 12.9545 23.0903 12.8816 23.0373 12.8233C22.9909 12.7723 22.918 12.7359 22.8384 12.7359C22.6595 12.7359 22.507 12.5683 22.507 12.3716C22.507 12.1676 22.6595 12 22.8384 12C23.1036 12 23.3355 12.1166 23.5079 12.306C23.6802 12.4954 23.7862 12.7577 23.7862 13.0419C23.7862 13.326 23.6802 13.5883 23.5079 13.7778C23.4283 13.8652 23.3355 13.9381 23.2295 13.9891ZM14.1226 25.6175H17.0588C17.2046 25.6175 17.3372 25.6831 17.4366 25.7851C17.536 25.8944 17.5957 26.0401 17.5957 26.2077V30.8415C17.5957 31.0091 17.536 31.1548 17.4366 31.2641C17.3372 31.3661 17.2046 31.4317 17.0588 31.4317H14.1226C13.9768 31.4317 13.8442 31.3661 13.7448 31.2568C13.6454 31.1548 13.5857 31.0091 13.5857 30.8415V26.2077C13.5857 26.0401 13.6454 25.8944 13.7448 25.7851C13.8442 25.6831 13.9768 25.6175 14.1226 25.6175ZM15.9851 20.6339H28.0083L21.9967 14.0255L15.9851 20.6339ZM28.6711 21.3625V21.3698H15.3157L14.169 22.6375H29.831L28.6711 21.3625ZM18.9014 34.1202H24.8931V33.9599H24.005H19.7896H18.9014V34.1202ZM24.8931 34.8561H18.9014V35.0164H24.8931V34.8561ZM21.8973 24.6703C22.5998 24.6703 23.2428 24.9909 23.7001 25.5009C24.164 26.0036 24.4557 26.7104 24.4557 27.4827V32.9836H25.3372C25.5824 32.9836 25.7813 33.2022 25.7813 33.4718V35.0164H32.4225V23.6503H31.9453H12.0481H11.5708V35.0164H18.0133V33.4718C18.0133 33.2022 18.2121 32.9836 18.4573 32.9836H19.3389V27.4827C19.3389 26.7104 19.6305 26.0109 20.0944 25.5009C20.5518 24.9909 21.1947 24.6703 21.8973 24.6703ZM21.8973 25.6539C21.4399 25.6539 21.0224 25.8579 20.7241 26.1931C20.4192 26.5209 20.2336 26.98 20.2336 27.4827V32.9836H23.5609V27.4827C23.5609 26.98 23.3753 26.5209 23.0704 26.1931C22.7722 25.8579 22.3546 25.6539 21.8973 25.6539ZM12.0481 22.6667H12.8699L18.2651 16.7432H10.8948V22.6667H11.1268H12.0481ZM31.1234 22.6667H31.9453H32.8732H33.1052V16.7432H25.7349L31.1234 22.6667ZM26.9412 25.6175H29.8708C30.0166 25.6175 30.1558 25.6831 30.2486 25.7851C30.348 25.8944 30.4076 26.0401 30.4076 26.2077V30.8415C30.4076 31.0091 30.348 31.1548 30.2486 31.2641C30.1558 31.3661 30.0166 31.4317 29.8708 31.4317H26.9412C26.7887 31.4317 26.6562 31.3661 26.5568 31.2568C26.464 31.1548 26.3977 31.0091 26.3977 30.8415V26.2077C26.3977 26.0401 26.464 25.8944 26.5568 25.7851C26.6562 25.6831 26.7887 25.6175 26.9412 25.6175ZM29.7382 26.3534H27.0737V30.6958H29.7382V26.3534ZM16.9263 26.3534H14.2552V30.6958H16.9263V26.3534Z" fill="white"/>
</svg>
