<svg width="290" height="492" viewBox="0 0 290 492" fill="none" xmlns="http://www.w3.org/2000/svg">
<path d="M191.912 245.896L7.85593 429.96C2.78793 435.016 -5.66444e-05 441.776 -5.72746e-05 448.984C-5.79051e-05 456.196 2.78793 462.952 7.85593 468.016L23.9839 484.136C29.0439 489.208 35.8079 492 43.0159 492C50.2239 492 56.9799 489.208 62.0439 484.136L281.192 264.992C286.276 259.912 289.06 253.124 289.04 245.908C289.06 238.66 286.28 231.88 281.192 226.796L62.248 7.86399C57.184 2.79199 50.428 -2.08601e-05 43.216 -2.14906e-05C36.008 -2.21208e-05 29.252 2.79199 24.184 7.86399L8.05998 23.984C-2.43202 34.476 -2.43202 51.556 8.05997 62.044L191.912 245.896Z" fill="#14B487"/>
</svg>
