<svg width="59" height="64" viewBox="0 0 59 64" fill="none" xmlns="http://www.w3.org/2000/svg">
<path fill-rule="evenodd" clip-rule="evenodd" d="M27.4366 63.7656C28.0934 63.9128 28.783 64 29.5 64C30.217 64 30.9066 63.9128 31.5634 63.7656C32.2256 63.6184 32.8824 63.4058 33.5227 63.1442C34.1193 62.9044 34.7049 62.6209 35.2741 62.3156C35.8816 61.994 36.4344 61.6779 36.9653 61.3672V61.3617C38.4595 60.4841 40.0576 59.5847 41.6886 58.6744C45.3446 56.6303 49.1648 54.488 52.1696 52.3131L52.186 52.3022C53.9264 51.1248 55.6395 49.9474 56.8874 47.9468C58.1517 45.9245 58.9836 43.0246 58.9836 38.364L59 31.9973L58.9891 25.6305H58.9836C58.9836 16.2984 55.5903 13.9981 52.1039 11.6433L52.0984 11.6379V11.6433L51.2775 11.0819L36.9653 2.63283C36.4344 2.32212 35.8816 2.00596 35.2741 1.6789C34.7049 1.3791 34.1193 1.09565 33.5227 0.855804C32.8824 0.594157 32.2256 0.381569 31.5634 0.228941C30.9066 0.0817647 30.217 0 29.5 0C28.783 0 28.0934 0.0817647 27.4312 0.228941C26.7689 0.381569 26.1176 0.594157 25.4773 0.855804C24.8807 1.09565 24.2951 1.3791 23.7259 1.6789C23.1348 1.99506 22.5765 2.31667 22.0347 2.63283L7.71707 11.0819L6.8961 11.6433V11.6379V11.6433C3.40974 13.9981 0.0109462 16.2984 0.0164193 25.6305L0 31.9973L0.0109462 38.364C0.0109462 43.0246 0.842857 45.9245 2.10714 47.9468C3.36048 49.9474 5.07356 51.1248 6.81401 52.3022L6.83043 52.3131C9.82968 54.488 13.6499 56.6248 17.3005 58.6689C18.9369 59.5847 20.5405 60.4841 22.0347 61.3617C22.5765 61.6833 23.1348 62.0049 23.7259 62.3156C24.2951 62.6209 24.8807 62.9044 25.4773 63.1442C26.1176 63.4058 26.7689 63.6184 27.4366 63.7656ZM25.5648 50.5524H32.346V33.8125L38.1256 33.807L38.9739 27.0805L32.346 27.0587C32.346 19.52 31.6017 19.6562 39.2585 19.6344V13.6929C34.7432 13.3059 30.6931 13.0224 27.9456 15.6607C25.1872 18.3044 25.5648 22.4908 25.5648 27.0587H19.736V33.8125H25.532L25.5648 50.5524Z" fill="#14B487"/>
</svg>
