<svg width="80" height="88" viewBox="0 0 80 88" fill="none" xmlns="http://www.w3.org/2000/svg">
<path fill-rule="evenodd" clip-rule="evenodd" d="M37.1997 87.6824C38.0945 87.8842 39.0255 88 40 88C40.9745 88 41.9055 87.8842 42.8003 87.6824C43.7002 87.4794 44.5844 87.1835 45.4527 86.8272C46.264 86.4935 47.056 86.104 47.8307 85.6877C48.6559 85.2446 49.4015 84.8082 50.121 84.38L50.1201 84.3787C52.1462 83.1668 54.3155 81.9353 56.5317 80.6778C61.4832 77.8679 66.6695 74.9247 70.7389 71.9322L70.7612 71.916C73.1219 70.298 75.443 68.6813 77.1411 65.9258C78.8531 63.1474 79.9806 59.16 79.9764 52.7544L80 44.0002L79.9848 35.2456H79.9819C79.9819 22.4083 75.3755 19.2489 70.6491 16.0069L70.6461 16.0056L70.6453 16.0065L69.533 15.2369L50.1201 3.62128L50.121 3.61958C49.4015 3.19134 48.6555 2.75502 47.8302 2.31188C47.0555 1.89599 46.264 1.50691 45.4527 1.17361C44.5848 0.816458 43.7006 0.520609 42.8007 0.317559C41.9059 0.115786 40.9745 0 40 0C39.0255 0 38.0941 0.115786 37.1993 0.317559C36.299 0.520609 35.4152 0.816458 34.5473 1.17361C33.7364 1.50649 32.9444 1.89556 32.1698 2.31145C31.3719 2.73969 30.6158 3.1824 29.8795 3.62128L10.4666 15.2369L9.35472 16.0065L9.35387 16.0056L9.3505 16.0074C4.62278 19.2498 0.0151732 22.4105 0.0231813 35.2456L0 44.0002L0.0147517 52.7544H0.0181236C0.0181236 59.1634 1.14642 63.1504 2.85762 65.9258C4.55703 68.6813 6.87811 70.298 9.23881 71.916L9.26073 71.9322C13.3284 74.9226 18.5126 77.8649 23.462 80.674C25.6807 81.9332 27.8521 83.1655 29.8795 84.3787C30.6154 84.8167 31.3711 85.2595 32.1693 85.6881C32.944 86.1044 33.736 86.4935 34.5473 86.8272C35.4152 87.1835 36.2994 87.4794 37.1997 87.6824Z" fill="#0EA57A"/>
<path d="M54.8192 37.8449C54.815 37.8393 54.8109 37.8339 54.8066 37.8283L41.272 20.3633C41.0949 20.1347 40.8223 20.0007 40.5332 20C40.5324 20 40.5317 20 40.531 20C40.2427 20 39.9704 20.1327 39.7926 20.3598L26.1983 37.7334C26.1774 37.7601 26.1581 37.7878 26.1405 37.8162C23.4694 41.1039 22 45.2454 22 49.4938C22 59.6981 30.2851 68 40.4688 68C50.6524 68 58.9375 59.6981 58.9375 49.4938C58.9375 45.2618 57.4753 41.1268 54.8192 37.8449ZM40.4688 66.125C31.3189 66.125 23.875 58.6643 23.875 49.4938C23.875 45.6358 25.2228 41.8762 27.6702 38.9075C27.7017 38.8693 27.7297 38.8292 27.7543 38.7875L40.5274 22.4634L53.2983 38.9428C53.3106 38.9603 53.3236 38.9773 53.3372 38.994C55.7395 41.948 57.0625 45.6769 57.0625 49.4938C57.0625 58.6643 49.6186 66.125 40.4688 66.125Z" fill="white"/>
<path d="M55.2339 46.2519L55.2314 46.2433C55.1545 45.9355 54.925 45.6834 54.6173 45.5812C54.5434 45.5567 52.777 44.9824 50.2791 45.1574C47.9827 45.3185 44.589 46.1667 41.4627 49.293C39.1396 51.616 38.075 54.0862 37.615 56.1447L32.8635 51.3932C32.4974 51.0272 31.9039 51.0272 31.5376 51.3932C31.1715 51.7593 31.1715 52.353 31.5376 52.7191L37.0905 58.272C37.1567 58.3382 37.2305 58.3919 37.3088 58.4342C37.202 60.7592 37.7278 62.3768 37.7512 62.4475C37.8445 62.7284 38.0648 62.9487 38.3457 63.0419C38.4099 63.0632 39.7491 63.4992 41.7359 63.4991C42.0376 63.4991 42.3545 63.489 42.6838 63.4659C44.9802 63.3049 48.3738 62.4568 51.5002 59.3306C57.0357 53.7949 55.5816 47.4646 55.2339 46.2519ZM50.1743 58.0047C48.0143 60.1647 45.4766 61.3709 42.6315 61.5897C41.841 61.6505 41.1347 61.6227 40.5558 61.5631L49.859 52.26C50.2251 51.8939 50.2251 51.3002 49.859 50.9341C49.4928 50.5681 48.8994 50.5681 48.5331 50.9341L39.2299 60.2372C39.1704 59.6581 39.1424 58.9518 39.2033 58.1615C39.4221 55.3165 40.6283 52.7788 42.7884 50.6188C44.9484 48.4587 47.4862 47.2525 50.3312 47.0336C51.7707 46.9224 52.9342 47.1055 53.5492 47.2393C53.9232 48.9438 54.4585 53.7205 50.1743 58.0047Z" fill="white"/>
<path d="M38.5351 48.4252C32.7685 43.5196 26.5809 45.4948 26.32 45.5813C26.0124 45.6834 25.783 45.9355 25.7059 46.2434L25.7035 46.2519C25.3558 47.4648 23.9018 53.7951 29.4372 59.3306C30.6724 60.5657 32.0464 61.5434 33.5212 62.2366C33.6501 62.2972 33.7857 62.3259 33.9193 62.3258C34.2714 62.3258 34.6088 62.1266 34.7684 61.787C34.9887 61.3184 34.7874 60.7599 34.3188 60.5397C33.0408 59.939 31.8445 59.086 30.7631 58.0047C26.4781 53.7197 27.0146 48.9418 27.3883 47.2383C28.8172 46.926 33.2099 46.3567 37.3202 49.8534C37.7147 50.189 38.3063 50.1412 38.6418 49.7468C38.9772 49.3523 38.9295 48.7607 38.5351 48.4252Z" fill="white"/>
<path d="M47.903 35.9211L42.5174 28.9715C42.2002 28.5621 41.6111 28.4875 41.2022 28.8047C40.7929 29.1219 40.7182 29.7107 41.0354 30.12L46.421 37.0696C46.6057 37.3081 46.8827 37.4328 47.1626 37.4328C47.3632 37.4328 47.5655 37.3687 47.7362 37.2363C48.1455 36.9192 48.2201 36.3303 47.903 35.9211Z" fill="white"/>
<path d="M49.7598 38.317L49.7332 38.2828C49.416 37.8737 48.8272 37.7992 48.4179 38.1165C48.0088 38.4337 47.9343 39.0227 48.2516 39.4318L48.2781 39.466C48.4629 39.7043 48.7398 39.829 49.0196 39.829C49.2203 39.829 49.4225 39.7648 49.5934 39.6323C50.0026 39.3151 50.0771 38.7261 49.7598 38.317Z" fill="white"/>
</svg>
