<svg width="80" height="88" viewBox="0 0 80 88" fill="none" xmlns="http://www.w3.org/2000/svg">
<path fill-rule="evenodd" clip-rule="evenodd" d="M37.1997 87.6824C38.0945 87.8842 39.0255 88 40 88C40.9745 88 41.9055 87.8842 42.8003 87.6824C43.7002 87.4794 44.5844 87.1835 45.4527 86.8272C46.264 86.4935 47.056 86.104 47.8306 85.6877C48.6559 85.2446 49.4015 84.8082 50.121 84.38L50.1201 84.3787C52.1462 83.1668 54.3155 81.9353 56.5317 80.6778C61.4832 77.8679 66.6695 74.9247 70.7389 71.9322L70.7612 71.916C73.1219 70.298 75.443 68.6813 77.1411 65.9258C78.8532 63.1474 79.9806 59.16 79.9764 52.7544L80 44.0002L79.9848 35.2456H79.9819C79.9819 22.4083 75.3755 19.2489 70.6491 16.0069L70.6461 16.0056L70.6453 16.0065L69.533 15.2369L50.1201 3.62128L50.121 3.61958C49.4015 3.19134 48.6555 2.75502 47.8302 2.31188C47.0556 1.89599 46.264 1.50691 45.4527 1.17361C44.5848 0.816458 43.7006 0.520609 42.8007 0.317559C41.9059 0.115786 40.9745 0 40 0C39.0255 0 38.0941 0.115786 37.1993 0.317559C36.299 0.520609 35.4152 0.816458 34.5473 1.17361C33.7364 1.50649 32.9444 1.89556 32.1698 2.31145C31.3719 2.73969 30.6158 3.1824 29.8795 3.62128L10.4666 15.2369L9.35472 16.0065L9.35387 16.0056L9.3505 16.0074C4.62278 19.2498 0.0151732 22.4105 0.0231813 35.2456L0 44.0002L0.0147517 52.7544H0.0181236C0.0181236 59.1634 1.14642 63.1504 2.85762 65.9258C4.55703 68.6813 6.87811 70.298 9.23881 71.916L9.26073 71.9322C13.3284 74.9226 18.5126 77.8649 23.462 80.674C25.6807 81.9332 27.8521 83.1655 29.8795 84.3787C30.6154 84.8167 31.3711 85.2595 32.1693 85.6881C32.944 86.1044 33.736 86.4935 34.5473 86.8272C35.4152 87.1835 36.2994 87.4794 37.1997 87.6824V87.6824Z" fill="#14B487"/>
<path d="M26.5835 52.0478C27.075 52.0191 27.4509 52.4208 27.4509 52.9085C27.4798 53.1668 27.3352 53.3963 27.1618 53.5684C26.9305 54.1423 26.9594 54.6874 27.1618 55.1751C27.3063 55.4907 27.5087 55.7776 27.7689 56.0072C28.0291 56.2367 28.3182 56.3802 28.6362 56.4375C29.0988 56.5523 29.5903 56.4662 30.0529 56.1219V49.4369L24.8488 43.584C24.5886 43.3258 24.6176 42.8954 24.9067 42.6659C25.1669 42.4363 25.5716 42.465 25.8318 42.7233L30.0529 47.4573V37.4728C30.0529 37.0998 30.342 36.8129 30.7179 36.8129C31.0648 36.8129 31.3828 37.0998 31.3828 37.4728V51.1871L35.6039 46.4531C35.8352 46.1949 36.2399 46.1662 36.5291 46.3957C36.7893 46.6539 36.8182 47.0556 36.5869 47.3138L31.3828 53.1668V55.8637C36.4712 56.2941 39.6804 54.5152 41.2416 52.0765C41.8198 51.1297 42.1668 50.0968 42.2824 49.064C42.3981 48.0024 42.3113 46.9408 41.9933 45.9366C41.1838 43.4979 39.1022 41.4895 35.8352 41.1739L35.8063 41.1452C35.3148 41.0879 34.9967 40.6288 35.0546 40.1698C35.6906 36.3825 34.7076 34.0299 33.1464 32.8822C32.308 32.2797 31.2672 31.9928 30.2264 32.0215C29.1566 32.0502 28.058 32.3945 27.1328 33.0257C25.456 34.202 24.3284 36.3539 24.8778 39.2516C24.9934 39.7394 24.6754 40.1984 24.2128 40.2845C22.1023 40.7436 20.7145 42.2068 20.1074 43.9283C19.7894 44.789 19.7026 45.7645 19.7894 46.7113C19.905 47.6294 20.223 48.5475 20.7434 49.3509C21.7842 50.9289 23.7213 52.0478 26.5835 52.0478ZM36.9916 20C38.3216 20 39.5069 20.5164 40.3743 21.3772C41.2416 22.2379 41.762 23.4142 41.762 24.734C41.762 26.0251 41.2416 27.2014 40.3743 28.0622C39.5069 28.9229 38.3216 29.4393 36.9916 29.4393C35.6906 29.4393 34.5053 28.9229 33.6379 28.0622C32.7706 27.2014 32.2502 26.0251 32.2502 24.734C32.2502 23.4142 32.7706 22.2379 33.6379 21.3772C34.5053 20.5164 35.6906 20 36.9916 20V20ZM39.1311 22.6109C38.5818 22.0944 37.8301 21.7501 36.9916 21.7501C36.1821 21.7501 35.4304 22.0944 34.8811 22.6109C34.3318 23.156 34.0138 23.902 34.0138 24.734C34.0138 25.5374 34.3318 26.2833 34.8811 26.8285C35.4304 27.3736 36.1821 27.6892 36.9916 27.6892C37.8301 27.6892 38.5818 27.3736 39.1311 26.8285C39.6804 26.2833 39.9984 25.5374 39.9984 24.734C39.9984 23.902 39.6804 23.156 39.1311 22.6109ZM39.3045 38.6491L41.4151 39.7681C41.8488 39.9976 41.9933 40.5427 41.762 40.9444L41.7042 41.0592L41.2416 41.6617C42.3981 42.6946 43.1787 43.9857 43.6413 45.3915C44.046 46.6252 44.1906 47.945 44.046 49.2361V49.2648C43.8726 50.5559 43.4678 51.847 42.7161 52.9946C41.4151 55.0604 39.16 56.7531 35.9219 57.3843L35.8063 57.5565H35.7774L34.6209 59.2779H59.4558L58.2993 57.5565L53.3555 50.2977C53.3266 50.2403 53.2977 50.2116 53.2977 50.1542C53.0953 49.7239 53.2688 49.2074 53.7024 49.0066L57.0851 47.4573L52.3725 41.0592L52.3147 40.9444C52.0834 40.5427 52.2569 39.9976 52.6616 39.7681L54.7721 38.6491L47.0528 26.0825L39.3045 38.6491ZM61.1037 61.0281H47.6889V66.2499H60.2653C60.7568 66.2499 61.1327 66.6515 61.1327 67.1106C61.1327 67.5983 60.7568 68 60.2653 68H23.7213C23.2298 68 22.8251 67.5983 22.8251 67.1106C22.8251 66.6515 23.2298 66.2499 23.7213 66.2499H30.0529V57.6139C29.4747 57.8147 28.8964 57.8434 28.3471 57.7286C27.8267 57.6139 27.3352 57.3557 26.9016 56.9827C26.4968 56.6384 26.1788 56.1793 25.9475 55.6916C25.7162 55.0891 25.6005 54.4292 25.7451 53.7406C22.6516 53.5397 20.5121 52.1626 19.2689 50.2977C18.5751 49.2648 18.1703 48.0885 18.0547 46.8834C17.9101 45.7071 18.0547 44.4734 18.4594 43.3545C19.1533 41.3174 20.7145 39.5672 23.0274 38.7926C22.6516 35.4931 24.0972 33.0257 26.1499 31.5912C27.3352 30.7878 28.7519 30.3288 30.1685 30.2714C31.5852 30.2427 33.0019 30.6157 34.1872 31.4764C36.0954 32.8822 37.3675 35.5218 36.9338 39.5672C37.1651 39.5959 37.4253 39.6533 37.6566 39.7394L37.6277 39.7107C37.2229 39.4525 37.0784 38.936 37.3386 38.5057L46.2722 23.988C46.3011 23.9307 46.3589 23.8733 46.3878 23.8159L46.4457 23.7872C46.5035 23.7298 46.5613 23.6724 46.648 23.6438L46.7348 23.5864C46.8215 23.5577 46.8793 23.5577 46.9661 23.5577C47.0239 23.529 47.0528 23.529 47.1106 23.5577C47.1974 23.5577 47.2841 23.5577 47.3419 23.5864L47.4287 23.6438C47.5154 23.6724 47.5732 23.7298 47.631 23.7872L47.6889 23.8159C47.7178 23.8733 47.7756 23.9307 47.8045 23.988L56.7381 38.5057C56.9983 38.936 56.8827 39.4525 56.449 39.7107L54.3963 40.8296L59.1089 47.2851C59.398 47.6868 59.3112 48.2319 58.9354 48.5188C58.8776 48.5475 58.8197 48.5762 58.7619 48.6049L55.3793 50.1542L59.7449 56.581L61.8265 59.6509L61.8554 59.6796V59.7083H61.8844V59.737V59.7657H61.9133V59.7944V59.8231H61.9422V59.8518V59.8805V59.9091L61.9711 59.9378V59.9665V59.9952V60.0239V60.0526V60.0813L62 60.11V60.1387V60.1674V60.1961H61.9711V60.2247V60.2534V60.2821V60.3108V60.3395V60.3682H61.9422V60.3969V60.4256V60.4543L61.9133 60.483V60.5117L61.8844 60.5403V60.569L61.8554 60.5977V60.6264L61.8265 60.6551L61.7976 60.6838L61.7687 60.7125V60.7412H61.7398V60.7699H61.7109V60.7986H61.682V60.8273H61.6531L61.6241 60.8559L61.5952 60.8846H61.5663V60.9133H61.5374H61.5085V60.942H61.4796H61.4507V60.9707H61.4218H61.3929H61.3639V60.9994H61.335H61.3061H61.2772H61.2483L61.2194 61.0281H61.1905H61.1616H61.1327H61.1037ZM46.3878 61.0281H32.973H32.944H32.9151H32.8862H32.8573V60.9994H32.8284H32.7995H32.7706H32.7417H32.7128V60.9707H32.6838H32.6549L32.626 60.942H32.5971L32.5682 60.9133H32.5393L32.5104 60.8846H32.4815L32.4525 60.8559L32.4236 60.8273L32.3947 60.7986H32.3658V60.7699H32.3369V60.7412H32.308V60.7125L32.2791 60.6838L32.2502 60.6551V60.6264L32.2213 60.5977L32.1923 60.569V60.5403L32.1634 60.5117V60.483V60.4543L32.1345 60.4256V60.3969V60.3682L32.1056 60.3395V60.3108V60.2821V60.2534V60.2247V60.1961V60.1674V60.1387V60.11V60.0813V60.0526V60.0239V59.9952V59.9665L32.1345 59.9378V59.9091V59.8805V59.8518L32.1634 59.8231V59.7944L32.1923 59.7657V59.737L32.2213 59.7083V59.6796L32.2502 59.6509L33.609 57.6712C32.8862 57.6999 32.1634 57.6712 31.3828 57.6139V66.2499H46.3878V61.0281Z" fill="white"/>
</svg>
