<svg width="80" height="88" viewBox="0 0 80 88" fill="none" xmlns="http://www.w3.org/2000/svg">
<path fill-rule="evenodd" clip-rule="evenodd" d="M37.1997 87.6824C38.0945 87.8842 39.0255 88 40 88C40.9745 88 41.9055 87.8842 42.8003 87.6824C43.7002 87.4794 44.5844 87.1835 45.4527 86.8272C46.264 86.4935 47.056 86.104 47.8307 85.6877C48.6559 85.2446 49.4015 84.8082 50.121 84.38L50.1201 84.3787C52.1462 83.1668 54.3155 81.9353 56.5317 80.6778C61.4832 77.8679 66.6695 74.9247 70.7389 71.9322L70.7612 71.916C73.1219 70.298 75.443 68.6813 77.1411 65.9258C78.8531 63.1474 79.9806 59.16 79.9764 52.7544L80 44.0002L79.9848 35.2456H79.9819C79.9819 22.4083 75.3755 19.2489 70.6491 16.0069L70.6461 16.0056L70.6453 16.0065L69.533 15.2369L50.1201 3.62128L50.121 3.61958C49.4015 3.19134 48.6555 2.75502 47.8302 2.31188C47.0555 1.89599 46.264 1.50691 45.4527 1.17361C44.5848 0.816458 43.7006 0.520609 42.8007 0.317559C41.9059 0.115786 40.9745 0 40 0C39.0255 0 38.0941 0.115786 37.1993 0.317559C36.299 0.520609 35.4152 0.816458 34.5473 1.17361C33.7364 1.50649 32.9444 1.89556 32.1698 2.31145C31.3719 2.73969 30.6158 3.1824 29.8795 3.62128L10.4666 15.2369L9.35472 16.0065L9.35387 16.0056L9.3505 16.0074C4.62278 19.2498 0.0151732 22.4105 0.0231813 35.2456L0 44.0002L0.0147517 52.7544H0.0181236C0.0181236 59.1634 1.14642 63.1504 2.85762 65.9258C4.55703 68.6813 6.87811 70.298 9.23881 71.916L9.26073 71.9322C13.3284 74.9226 18.5126 77.8649 23.462 80.674C25.6807 81.9332 27.8521 83.1655 29.8795 84.3787C30.6154 84.8167 31.3711 85.2595 32.1693 85.6881C32.944 86.1044 33.736 86.4935 34.5473 86.8272C35.4152 87.1835 36.2994 87.4794 37.1997 87.6824Z" fill="#0EA57A"/>
<path d="M15.2402 65C14.5758 65 14.0443 64.4504 14.0443 63.7634C14.0443 63.0763 14.5758 62.5267 15.2402 62.5267H29.6797V56.2061H22.5486C20.201 56.2061 18.075 55.2443 16.5247 53.6412C14.9744 52.0382 14 49.8397 14 47.3664C14 45.0763 14.8859 42.9237 16.3032 41.3664C17.4106 40.1298 18.8722 39.2137 20.5111 38.8015L20.4225 38.3893C20.3339 37.7481 20.2896 37.1069 20.2896 36.5115C20.2896 33.5802 21.4412 30.9237 23.3015 29C25.1618 27.0305 27.7308 25.8397 30.5656 25.8397C33.356 25.8397 35.8808 27.0305 37.7411 28.8626C39.3356 30.4656 40.4429 32.6183 40.753 35C41.1959 33.2595 41.7717 31.5649 42.4804 29.916C44.4293 25.4275 47.2198 21.3053 50.6746 17.458C50.8961 17.1832 51.2504 17 51.6491 17C51.9591 17 52.2692 17.1374 52.4906 17.3664L52.5349 17.458C56.0341 21.3053 58.8245 25.4275 60.7734 29.916C62.7223 34.4962 63.7411 39.4427 63.7411 44.8473V44.9847C63.7411 47.687 62.7666 50.2061 61.1721 52.2214C59.5332 54.2824 57.2743 55.7481 54.6167 56.4351C53.908 56.5725 53.2879 56.6641 52.5792 56.7557H52.5349V62.5267H64.8041C65.4685 62.5267 66 63.0763 66 63.7634C66 64.4504 65.4685 65 64.8041 65H15.2402ZM29.6797 53.7786V52.771L25.2947 47.6412C24.9847 47.2748 25.029 46.6794 25.3833 46.3588C25.7819 45.9924 26.3135 46.0382 26.6678 46.4046L29.6797 49.9771V38.1145C29.6797 37.6107 30.1227 37.1985 30.6099 37.1985C31.0971 37.1985 31.4957 37.6107 31.4957 38.1145V43.2901L33.9762 40.4046C34.2862 40.0382 34.862 39.9924 35.2164 40.3588C35.5707 40.6794 35.615 41.2748 35.3049 41.6412L31.4957 46.084V53.7786H38.7155C39.6899 53.7786 40.5315 53.6412 41.3288 53.3664C41.7717 53.1832 42.1704 53 42.569 52.771C42.3918 52.5878 42.2147 52.4046 42.0818 52.2214C40.4872 50.2061 39.5128 47.687 39.5128 44.9847L39.5571 44.8473C39.5128 42.3282 39.7342 39.9008 40.1772 37.5649C39.9557 37.5191 39.7342 37.4733 39.5128 37.4733C38.937 37.3817 38.494 36.8779 38.4497 36.2824C38.4055 34.084 37.4753 32.0687 36.0579 30.6489C34.6405 29.229 32.6917 28.313 30.5656 28.313C28.3952 28.313 26.402 29.229 24.9847 30.7405C23.523 32.2061 22.6371 34.2672 22.6371 36.5115C22.6371 37.0153 22.6814 37.5191 22.77 37.9771C22.8586 38.4351 22.9915 38.8473 23.1244 39.3053C23.1687 39.3969 23.2129 39.5802 23.2129 39.7176C23.2572 40.4046 22.77 40.9542 22.1056 41C20.5111 41.1374 19.0937 41.8702 18.0307 43.0153C17.0119 44.1603 16.3918 45.7176 16.3918 47.3664C16.3918 49.1527 17.1005 50.7557 18.2078 51.9008C19.3152 53.0458 20.8654 53.7786 22.5486 53.7786H29.6797ZM31.4957 56.2061V62.5267H50.7189V56.7557C50.7189 56.7557 50.6746 56.7557 50.6303 56.7557H50.4532C50.4089 56.7099 50.3646 56.7099 50.3203 56.7099H50.1874C50.1431 56.7099 50.0545 56.7099 50.0102 56.6641H49.8773C49.833 56.6641 49.7445 56.6641 49.6559 56.6183H49.6116C49.523 56.6183 49.4787 56.6183 49.3901 56.5725H49.3458C49.2572 56.5725 49.1687 56.5267 49.0801 56.5267H49.0358C48.9472 56.4809 48.9029 56.4809 48.8143 56.4809L48.5485 56.3893C47.0426 56.0229 45.6252 55.3359 44.4293 54.4657C43.6763 54.9695 42.9233 55.3817 42.0818 55.7023C41.063 56.0687 39.9114 56.2061 38.7155 56.2061H31.4957ZM52.5349 37.1527L55.5911 33.5802C55.9012 33.1679 56.477 33.1679 56.8313 33.4886C57.1857 33.8092 57.23 34.4046 56.9199 34.8168L52.5349 39.9008V54.2824C52.845 54.2366 53.1993 54.1908 53.5094 54.145C53.5537 54.145 53.6423 54.0992 53.6865 54.0992H53.7751C53.8194 54.0992 53.8637 54.0534 53.908 54.0534L54.0852 54.0076C56.2112 53.5038 58.0273 52.2672 59.356 50.6641C60.5963 49.1069 61.3492 47.1374 61.3492 44.9847V44.8473C61.3935 39.8092 60.4191 35.1832 58.6031 30.9237C56.9199 27.0305 54.5724 23.4122 51.6491 20.0687C48.6814 23.4122 46.3339 27.0305 44.6508 30.9237C42.8348 35.1832 41.8603 39.8092 41.9046 44.8473V44.9847C41.9046 47.1374 42.6576 49.1069 43.9421 50.6641C45.2266 52.2672 47.0426 53.458 49.1244 54.0076C49.6559 54.145 50.1874 54.2366 50.7189 54.2824V48.4198L45.2266 42.0076C44.9165 41.6412 44.9608 41.0458 45.3152 40.7252C45.6695 40.3588 46.2453 40.4046 46.5554 40.8168L50.7189 45.626V29.687C50.7189 29.1832 51.1175 28.771 51.6491 28.771C52.1363 28.771 52.5349 29.1832 52.5349 29.687V37.1527Z" fill="white"/>
</svg>
