<svg width="80" height="88" viewBox="0 0 80 88" fill="none" xmlns="http://www.w3.org/2000/svg">
<path fill-rule="evenodd" clip-rule="evenodd" d="M37.1997 87.6824C38.0945 87.8842 39.0255 88 40 88C40.9745 88 41.9055 87.8842 42.8003 87.6824C43.7002 87.4794 44.5844 87.1835 45.4527 86.8272C46.264 86.4935 47.056 86.104 47.8307 85.6877C48.6559 85.2446 49.4015 84.8082 50.121 84.38L50.1201 84.3787C52.1462 83.1668 54.3155 81.9353 56.5317 80.6778C61.4832 77.8679 66.6695 74.9247 70.7389 71.9322L70.7612 71.916C73.1219 70.298 75.443 68.6813 77.1411 65.9258C78.8531 63.1474 79.9806 59.16 79.9764 52.7544L80 44.0002L79.9848 35.2456H79.9819C79.9819 22.4083 75.3755 19.2489 70.6491 16.0069L70.6461 16.0056L70.6453 16.0065L69.533 15.2369L50.1201 3.62128L50.121 3.61958C49.4015 3.19134 48.6555 2.75502 47.8302 2.31188C47.0555 1.89599 46.264 1.50691 45.4527 1.17361C44.5848 0.816458 43.7006 0.520609 42.8007 0.317559C41.9059 0.115786 40.9745 0 40 0C39.0255 0 38.0941 0.115786 37.1993 0.317559C36.299 0.520609 35.4152 0.816458 34.5473 1.17361C33.7364 1.50649 32.9444 1.89556 32.1698 2.31145C31.3719 2.73969 30.6158 3.1824 29.8795 3.62128L10.4666 15.2369L9.35472 16.0065L9.35387 16.0056L9.3505 16.0074C4.62278 19.2498 0.0151732 22.4105 0.0231813 35.2456L0 44.0002L0.0147517 52.7544H0.0181236C0.0181236 59.1634 1.14642 63.1504 2.85762 65.9258C4.55703 68.6813 6.87811 70.298 9.23881 71.916L9.26073 71.9322C13.3284 74.9226 18.5126 77.8649 23.462 80.674C25.6807 81.9332 27.8521 83.1655 29.8795 84.3787C30.6154 84.8167 31.3711 85.2595 32.1693 85.6881C32.944 86.1044 33.736 86.4935 34.5473 86.8272C35.4152 87.1835 36.2994 87.4794 37.1997 87.6824Z" fill="#0EA57A"/>
<path d="M32.4544 58.1257H23.4726C23.1805 58.1257 22.9371 57.9262 22.8641 57.652L19.8945 48.8H19.1156L22.2799 58.8239L22.572 59.0483H32.4544V58.1257ZM41.7769 21.2966C41.4361 21.2966 41.144 20.9974 41.144 20.6483C41.144 20.2992 41.4361 20 41.7769 20C42.2637 20 42.7262 20.1995 43.0426 20.5486C43.3834 20.8727 43.5781 21.3465 43.5781 21.8452C43.5781 22.3439 43.3834 22.7927 43.0426 23.1418C42.8966 23.2914 42.7262 23.4161 42.5314 23.4909C46.9128 25.7849 53.8742 30.4229 57.428 32.5423H58.9858C59.4726 32.5423 59.8377 32.9164 59.8377 33.3901C59.8377 33.8888 59.4726 34.2629 58.9858 34.2629H44.1623L41.0467 38.1278V48.8748H50.929C51.4158 48.8748 51.7809 49.2488 51.7809 49.7475C51.7809 49.9221 51.7323 50.0966 51.6349 50.2462L50.3448 52.4156C50.2961 52.4904 50.2475 52.5403 50.1744 52.6151V54.2358C50.1744 54.5849 49.8824 54.8842 49.5416 54.8842H45.574L41.2414 60.6442L45.4523 66.2795H47.4239L49.2008 60.3449H47.2779C46.9371 60.3449 46.645 60.0457 46.645 59.6966V57.4774C46.645 57.1283 46.9371 56.8291 47.2779 56.8291H56.4544L59.4483 47.9522C59.5213 47.6779 59.8134 47.5034 60.0811 47.5034H62.1501C62.4909 47.5034 62.783 47.7777 62.783 48.1268C62.783 48.2016 62.7586 48.2764 62.7586 48.3512L59.2292 59.3974C59.2049 59.547 59.1075 59.6468 59.0101 59.7216L58.4016 60.2203C58.2799 60.2951 58.1582 60.3449 58.0122 60.3449H57.1602L58.9371 66.2795H63.1724C63.6349 66.2795 64 66.6535 64 67.1273C64 67.601 63.6349 68 63.1724 68H16.8519C16.3895 68 16 67.601 16 67.1273C16 66.6535 16.3895 66.2795 16.8519 66.2795H21.4523L23.2292 60.3449H22.3529C22.2312 60.3449 22.0852 60.2951 21.9878 60.2203L21.3793 59.7216C21.2576 59.6468 21.1846 59.547 21.1359 59.3974L17.6308 48.3512C17.6065 48.2764 17.6065 48.2016 17.6065 48.1268C17.6065 47.7777 17.8986 47.5034 18.2394 47.5034H20.3083C20.5761 47.5034 20.8438 47.6779 20.9412 47.9522L23.9108 56.8291H33.0872C33.4523 56.8291 33.7444 57.1283 33.7444 57.4774V59.6966C33.7444 60.0457 33.4523 60.3449 33.0872 60.3449H31.1886L32.9412 66.2795H34.9128L39.1237 60.6442L34.8154 54.8842H30.8479C30.4828 54.8842 30.215 54.5849 30.215 54.2358V52.6151C30.1176 52.5403 30.069 52.4405 30.0203 52.3408L28.7302 50.1964C28.4868 49.7725 28.6085 49.2488 28.998 48.9995C29.144 48.9247 29.2901 48.8748 29.4361 48.8748C32.7465 48.8748 36.0325 48.8748 39.3428 48.8748V37.7288L36.5436 34.2629H21.3793C20.9168 34.2629 20.5517 33.8888 20.5517 33.3901C20.5517 32.9164 20.9168 32.5423 21.3793 32.5423H22.9371C26.4665 30.4478 33.4767 25.7849 37.8337 23.4909C37.6633 23.4161 37.4686 23.2914 37.3225 23.1418C37.0061 22.7927 36.8114 22.3439 36.8114 21.8452C36.8114 21.3465 37.0061 20.8727 37.3225 20.5486C37.6633 20.1995 38.1014 20 38.5882 20C38.9533 20 39.2211 20.2992 39.2211 20.6483C39.2211 20.9974 38.9533 21.2966 38.5882 21.2966C38.4422 21.2966 38.3205 21.3465 38.2231 21.4462C38.1258 21.546 38.0771 21.6956 38.0771 21.8452C38.0771 21.9948 38.1258 22.1195 38.2231 22.2192C38.3205 22.319 38.4422 22.3688 38.5882 22.3688H41.7769C41.9229 22.3688 42.069 22.319 42.1663 22.2192C42.2637 22.1195 42.3124 21.9948 42.3124 21.8452C42.3124 21.6956 42.2637 21.546 42.1663 21.4462C42.069 21.3465 41.9229 21.2966 41.7769 21.2966ZM54.069 32.5423L40.1947 24.3387L26.3205 32.5423H54.069ZM41.0467 36.0831L42.5071 34.2629H41.0467V36.0831ZM38.1988 34.2629L39.3428 35.6842V34.2629H38.1988ZM48.9087 52.8395C43.1156 52.8894 37.2738 52.8395 31.4807 52.8145V53.5875H48.9087V52.8395ZM49.4442 50.5953H30.9452L31.2373 51.094H49.1521L49.4442 50.5953ZM43.432 54.8842H36.9331L40.1947 59.2229L43.432 54.8842ZM22.7667 66.2795H31.6268L29.8499 60.3449H24.5436L22.7667 66.2795ZM37.0304 66.2795H43.3347L40.1947 62.0655L37.0304 66.2795ZM48.7627 66.2795H57.6227L55.8458 60.3449H50.5152L48.7627 66.2795ZM56.9168 58.1257H47.9107V59.0483H57.8174L58.1095 58.8239L61.2738 48.8H60.4949L57.5254 57.652C57.4523 57.9262 57.2089 58.1257 56.9168 58.1257Z" fill="white"/>
</svg>
