<svg width="80" height="88" viewBox="0 0 80 88" fill="none" xmlns="http://www.w3.org/2000/svg">
<path fill-rule="evenodd" clip-rule="evenodd" d="M37.1997 87.6824C38.0945 87.8842 39.0255 88 40 88C40.9745 88 41.9055 87.8842 42.8003 87.6824C43.7002 87.4794 44.5844 87.1835 45.4527 86.8272C46.264 86.4935 47.056 86.104 47.8307 85.6877C48.6559 85.2446 49.4015 84.8082 50.121 84.38L50.1201 84.3787C52.1462 83.1668 54.3155 81.9353 56.5317 80.6778C61.4832 77.8679 66.6695 74.9247 70.7389 71.9322L70.7612 71.916C73.1219 70.298 75.443 68.6813 77.1411 65.9258C78.8531 63.1474 79.9806 59.16 79.9764 52.7544L80 44.0002L79.9848 35.2456H79.9819C79.9819 22.4083 75.3755 19.2489 70.6491 16.0069L70.6461 16.0056L70.6453 16.0065L69.533 15.2369L50.1201 3.62128L50.121 3.61958C49.4015 3.19134 48.6555 2.75502 47.8302 2.31188C47.0555 1.89599 46.264 1.50691 45.4527 1.17361C44.5848 0.816458 43.7006 0.520609 42.8007 0.317559C41.9059 0.115786 40.9745 0 40 0C39.0255 0 38.0941 0.115786 37.1993 0.317559C36.299 0.520609 35.4152 0.816458 34.5473 1.17361C33.7364 1.50649 32.9444 1.89556 32.1698 2.31145C31.3719 2.73969 30.6158 3.1824 29.8795 3.62128L10.4666 15.2369L9.35472 16.0065L9.35387 16.0056L9.3505 16.0074C4.62278 19.2498 0.0151732 22.4105 0.0231813 35.2456L0 44.0002L0.0147517 52.7544H0.0181236C0.0181236 59.1634 1.14642 63.1504 2.85762 65.9258C4.55703 68.6813 6.87811 70.298 9.23881 71.916L9.26073 71.9322C13.3284 74.9226 18.5126 77.8649 23.462 80.674C25.6807 81.9332 27.8521 83.1655 29.8795 84.3787C30.6154 84.8167 31.3711 85.2595 32.1693 85.6881C32.944 86.1044 33.736 86.4935 34.5473 86.8272C35.4152 87.1835 36.2994 87.4794 37.1997 87.6824Z" fill="#0EA57A"/>
<path d="M16.9263 57C16.4417 57 16.0725 56.5734 16.0725 56.0716C16.0725 55.5447 16.4417 55.1432 16.9263 55.1432H21.772C21.5874 53.2613 20.9874 51.53 19.9491 49.9492C18.7261 48.0673 16.8801 46.3861 14.4342 44.8806C14.0189 44.6297 13.8804 44.0777 14.1112 43.626C14.2727 43.2747 14.6419 43.0991 14.988 43.1493C18.4031 43.5758 21.2413 44.73 23.5949 46.4363C23.3411 45.0311 22.8334 43.626 22.1412 42.2208C21.0797 40.1382 19.5799 38.0054 17.6877 35.722C17.457 35.446 17.4801 35.0195 17.7339 34.7435C17.9185 34.5678 18.1954 34.5176 18.4031 34.618C20.8951 35.6719 23.2026 37.0268 25.2793 38.6327C27.2868 40.1382 29.0867 41.8947 30.7019 43.8267C31.2557 43.9271 31.8095 44.1027 32.3402 44.3035C32.5479 43.2245 32.4786 41.7692 32.271 40.1382C31.9249 37.6792 31.2095 34.8689 30.3558 32.2594C30.2173 31.7826 30.4481 31.2557 30.8865 31.08C31.0711 31.0048 31.2788 31.0298 31.4634 31.1051C34.117 32.1841 36.286 34.2416 37.8089 36.8763C38.5935 38.2312 39.1934 39.7618 39.6087 41.3928C40.7163 39.2098 42.3546 37.2777 44.2468 35.6719C47.1542 33.1878 50.6615 31.4815 53.6382 31.0048C53.8228 30.9797 54.0305 31.0549 54.1689 31.2055C54.4227 31.4815 54.4227 31.9081 54.192 32.1841C51.7922 34.8438 50.2001 37.5287 49.2078 39.9877C48.331 42.1958 47.9156 44.2282 47.8464 45.8341C49.1848 43.074 51.5845 40.7655 54.2843 38.8585C57.1917 36.801 60.3991 35.2453 62.9142 34.1412C63.1219 34.0409 63.3988 34.0911 63.5834 34.2667C63.8372 34.5176 63.8603 34.9442 63.6295 35.2453C61.7374 37.6039 60.2376 39.812 59.1992 41.9699C58.4377 43.5507 57.9301 45.1064 57.6993 46.6872C59.7068 45.6083 62.1758 45.2821 65.314 45.9595C65.614 46.0097 65.8678 46.2356 65.9601 46.5618C66.0985 47.0636 65.8678 47.5905 65.4063 47.7411C63.5834 48.3935 62.1528 49.3721 61.1605 50.727C60.3299 51.9063 59.8222 53.3617 59.6607 55.1432H63.7449C64.2064 55.1432 64.5987 55.5447 64.5987 56.0716C64.5987 56.5734 64.2064 57 63.7449 57H16.9263ZM40.0472 43.6511C40.1164 44.1278 40.1625 44.6046 40.2087 45.1064C40.4856 44.9559 40.7856 44.8053 41.0625 44.6548C42.6315 43.902 44.3621 43.5256 46.2312 43.6009C46.4158 43.626 46.6235 43.7013 46.785 43.8769C46.9927 42.522 47.408 41.0164 48.0541 39.4106C48.8848 37.3279 50.1308 35.0947 51.8845 32.8616C49.6001 33.5892 47.1542 34.9442 45.0313 36.7759C42.8161 38.6578 40.9702 41.0164 40.0472 43.6511ZM46.6004 45.3573C45.5159 46.2356 44.2006 47.8665 43.4853 49.9743C43.3699 50.3005 43.2776 50.6016 43.2084 50.9528C43.9237 49.8739 44.7313 48.9204 45.6543 48.0924C45.9543 47.8164 46.2773 47.5654 46.6235 47.3145C46.5542 46.7123 46.5542 46.0599 46.6004 45.3573ZM43.0007 53.8133C43.0469 54.265 43.1161 54.6915 43.2084 55.1432H47.8464C48.0079 52.9602 48.631 51.1285 49.6232 49.4473C50.3154 48.268 51.1923 47.164 52.2537 46.1352C49.7616 46.8629 47.9387 47.8414 46.4619 49.1713C45.1005 50.4008 44.016 51.9314 43.0007 53.8133ZM49.1386 55.1432H50.9615C52.4383 52.0569 53.9843 49.4473 56.1303 47.716C56.1764 47.6658 56.2456 47.6156 56.3149 47.5654C56.4533 45.4828 57.0532 43.4002 58.0685 41.3175C58.83 39.7618 59.7991 38.181 60.976 36.5501C59.0377 37.4785 56.9379 38.6578 54.9765 40.0128C52.7152 41.6186 50.6615 43.5005 49.3924 45.7086C50.8461 45.0562 52.5537 44.5544 54.5842 44.1529C54.815 44.0777 55.0919 44.1529 55.2534 44.4038C55.4611 44.705 55.4149 45.1315 55.138 45.3824C53.2228 46.913 51.723 48.4687 50.6846 50.2001C49.8309 51.6554 49.3001 53.2613 49.1386 55.1432ZM41.3163 54.2148C41.1317 52.4333 41.3855 50.8023 41.8701 49.347C42.3777 47.8916 43.1161 46.637 43.9006 45.6334C43.1392 45.7839 42.4239 46.0348 41.7547 46.361C40.4856 46.9632 39.3318 47.8164 38.3396 48.8451C39.6549 50.5012 40.6933 52.3831 41.3163 54.2148ZM38.5473 46.2356V46.2105C38.5012 43.0991 37.7166 40.2135 36.3552 37.8549C35.3861 36.1737 34.117 34.7685 32.6171 33.7649C33.217 35.8475 33.7016 37.9552 33.9554 39.8873C34.2323 41.8696 34.2554 43.6762 33.9324 45.0311C34.8323 45.5581 35.686 46.1603 36.4706 46.8629C36.7013 47.0636 36.9321 47.2894 37.1397 47.5152C37.5782 47.0636 38.0627 46.637 38.5473 46.2356ZM36.5629 49.4975V49.4724C36.5398 49.4473 36.5167 49.4473 36.4937 49.4222C36.1475 49.0208 35.7783 48.6444 35.3861 48.2931C33.9554 47.0134 32.271 46.0348 30.4019 45.6334C31.1865 46.637 31.9249 47.8916 32.4094 49.347C32.9863 51.0532 33.2401 53.0104 32.8248 55.1432H39.8164C39.1934 53.2111 38.0627 51.1787 36.5629 49.4975ZM52.8767 55.1432H57.9532C58.1378 52.91 58.7608 51.0783 59.8222 49.5979C60.4222 48.7698 61.1375 48.0673 61.9682 47.4651C60.0068 47.5152 58.4377 48.1676 57.1225 49.2215C55.4611 50.5765 54.1228 52.6591 52.8767 55.1432ZM28.7405 43.6009C27.4714 42.1958 26.0639 40.9161 24.564 39.7618C23.2718 38.7833 21.9335 37.905 20.4798 37.1272C21.5874 38.6327 22.5334 40.1131 23.2488 41.5434C24.264 43.5507 24.864 45.5581 25.0255 47.5654C27.2868 49.5979 29.0405 52.1823 30.4711 55.1432H31.0942C31.5326 53.2362 31.3249 51.4798 30.8173 49.9743C30.0789 47.8163 28.6944 46.1603 27.6099 45.2821C27.2176 44.981 27.1484 44.3788 27.4253 43.9773C27.5868 43.7515 27.8176 43.626 28.0714 43.6009C28.3021 43.6009 28.5329 43.6009 28.7405 43.6009ZM23.4795 55.1432H28.5329C27.2176 52.634 25.6255 50.451 23.641 48.7448C22.2565 47.5905 20.6875 46.637 18.8646 45.9595C19.8337 46.8879 20.6644 47.8414 21.3336 48.8702C22.5796 50.7772 23.2949 52.8598 23.4795 55.1432Z" fill="white"/>
</svg>
