<svg width="80" height="88" viewBox="0 0 80 88" fill="none" xmlns="http://www.w3.org/2000/svg">
<path fill-rule="evenodd" clip-rule="evenodd" d="M37.1997 87.6824C38.0945 87.8842 39.0255 88 40 88C40.9745 88 41.9055 87.8842 42.8003 87.6824C43.7002 87.4794 44.5844 87.1835 45.4527 86.8272C46.264 86.4935 47.056 86.104 47.8307 85.6877C48.6559 85.2446 49.4015 84.8082 50.121 84.38L50.1201 84.3787C52.1462 83.1668 54.3155 81.9353 56.5317 80.6778C61.4832 77.8679 66.6695 74.9247 70.7389 71.9322L70.7612 71.916C73.1219 70.298 75.443 68.6813 77.1411 65.9258C78.8531 63.1474 79.9806 59.16 79.9764 52.7544L80 44.0002L79.9848 35.2456H79.9819C79.9819 22.4083 75.3755 19.2489 70.6491 16.0069L70.6461 16.0056L70.6453 16.0065L69.533 15.2369L50.1201 3.62128L50.121 3.61958C49.4015 3.19134 48.6555 2.75502 47.8302 2.31188C47.0555 1.89599 46.264 1.50691 45.4527 1.17361C44.5848 0.816458 43.7006 0.520609 42.8007 0.317559C41.9059 0.115786 40.9745 0 40 0C39.0255 0 38.0941 0.115786 37.1993 0.317559C36.299 0.520609 35.4152 0.816458 34.5473 1.17361C33.7364 1.50649 32.9444 1.89556 32.1698 2.31145C31.3719 2.73969 30.6158 3.1824 29.8795 3.62128L10.4666 15.2369L9.35472 16.0065L9.35387 16.0056L9.3505 16.0074C4.62278 19.2498 0.0151732 22.4105 0.0231813 35.2456L0 44.0002L0.0147517 52.7544H0.0181236C0.0181236 59.1634 1.14642 63.1504 2.85762 65.9258C4.55703 68.6813 6.87811 70.298 9.23881 71.916L9.26073 71.9322C13.3284 74.9226 18.5126 77.8649 23.462 80.674C25.6807 81.9332 27.8521 83.1655 29.8795 84.3787C30.6154 84.8167 31.3711 85.2595 32.1693 85.6881C32.944 86.1044 33.736 86.4935 34.5473 86.8272C35.4152 87.1835 36.2994 87.4794 37.1997 87.6824Z" fill="#0EA57A"/>
<path d="M60.5355 54.343C60.3855 54.4931 60.3012 54.6965 60.3012 54.9086C60.3012 55.1208 60.3855 55.3242 60.5355 55.4742C61.736 56.6745 62.4105 58.3024 62.4105 59.9998C62.4105 61.6973 61.736 63.3252 60.5355 64.5254C59.335 65.7257 57.7067 66.4 56.0089 66.4C54.3111 66.4 52.6828 65.7257 51.4823 64.5254L46.9557 59.9998L56.0089 50.9486L58.6839 53.623C58.8348 53.7688 59.0369 53.8494 59.2467 53.8476C59.4565 53.8457 59.6572 53.7616 59.8056 53.6133C59.9539 53.465 60.0381 53.2643 60.0399 53.0546C60.0417 52.8448 59.9611 52.6427 59.8153 52.4918L54.3117 46.9894C54.1617 46.8395 53.9582 46.7552 53.746 46.7552C53.5338 46.7552 53.3303 46.8395 53.1803 46.9894L49.7163 50.4518L43.3309 44.0686L53.4131 33.9886C54.4109 34.3469 55.4901 34.4138 56.5245 34.1815C57.5589 33.9492 58.5058 33.4272 59.2544 32.6766L61.5181 30.4142C61.5925 30.3399 61.6515 30.2517 61.6918 30.1546C61.732 30.0575 61.7528 29.9534 61.7528 29.8482C61.7528 29.7431 61.732 29.639 61.6918 29.5419C61.6515 29.4448 61.5925 29.3565 61.5181 29.2822L55.2887 23.0622L56.4202 21.931L62.6439 28.1534C62.7949 28.2992 62.997 28.3798 63.2068 28.378C63.4166 28.3761 63.6173 28.292 63.7656 28.1437C63.914 27.9954 63.9982 27.7947 64 27.585C64.0018 27.3752 63.9212 27.1731 63.7754 27.0222L56.9867 20.2342C56.8338 20.0897 56.6314 20.0092 56.421 20.0092C56.2106 20.0092 56.0081 20.0897 55.8553 20.2342L51.3279 24.7598C50.5806 25.5093 50.061 26.4551 49.8293 27.4877C49.5976 28.5203 49.6633 29.5974 50.0188 30.5942L37.6737 42.9374L27.9916 33.2574C28.431 32.9493 28.8195 32.5744 29.143 32.1462L37.1064 40.107C37.2573 40.2528 37.4594 40.3334 37.6692 40.3316C37.879 40.3298 38.0797 40.2456 38.2281 40.0973C38.3764 39.949 38.4606 39.7483 38.4624 39.5386C38.4642 39.3288 38.3836 39.1267 38.2378 38.9758L29.9568 30.6966C30.3371 29.6893 30.4192 28.5937 30.1933 27.5409C29.9674 26.4881 29.4431 25.5226 28.6829 24.7598L24.1555 20.2342C24.0055 20.0843 23.802 20 23.5898 20C23.3776 20 23.1741 20.0843 23.0241 20.2342L16.2346 27.0222C16.0846 27.1723 16.0003 27.3757 16.0003 27.5878C16.0003 27.8 16.0846 28.0034 16.2346 28.1534L20.7612 32.679C21.4968 33.416 22.4238 33.9327 23.4376 34.1709C24.4513 34.4091 25.5115 34.3593 26.4985 34.027L36.5422 44.0686L31.4003 49.2094C30.9534 49.0047 30.4553 48.9385 29.9703 49.0195C29.4854 49.1005 29.0358 49.3249 28.6797 49.6638L26.985 51.3598L25.8527 50.2286C25.5526 49.9287 25.1456 49.7602 24.7213 49.7602C24.2969 49.7602 23.8899 49.9287 23.5898 50.2286L16.2346 57.583C16.1603 57.6573 16.1013 57.7455 16.061 57.8426C16.0208 57.9396 16 58.0437 16 58.1488C16 58.2538 16.0206 58.3579 16.0608 58.455C16.101 58.5521 16.1599 58.6403 16.2342 58.7146C16.3085 58.789 16.3967 58.8479 16.4938 58.8882C16.5909 58.9284 16.695 58.9492 16.8001 58.9492C16.9052 58.9492 17.0092 58.9286 17.1064 58.8884C17.2035 58.8482 17.2917 58.7893 17.3661 58.715L22.4584 53.623L24.1563 55.3206L19.0632 60.4118C18.9868 60.4856 18.9258 60.5739 18.8839 60.6715C18.842 60.7691 18.8199 60.8741 18.819 60.9803C18.8181 61.0865 18.8383 61.1919 18.8785 61.2902C18.9188 61.3885 18.9782 61.4778 19.0533 61.553C19.1284 61.6281 19.2178 61.6875 19.3161 61.7277C19.4145 61.7679 19.5198 61.7882 19.6261 61.7872C19.7323 61.7863 19.8373 61.7642 19.9349 61.7223C20.0326 61.6804 20.1209 61.6194 20.1947 61.543L25.2878 56.4518L27.5515 58.715L22.4584 63.8054C22.3819 63.8792 22.321 63.9675 22.2791 64.0651C22.2371 64.1627 22.215 64.2677 22.2141 64.3739C22.2132 64.4801 22.2334 64.5855 22.2737 64.6838C22.3139 64.7821 22.3733 64.8714 22.4485 64.9466C22.5236 65.0217 22.6129 65.0811 22.7113 65.1213C22.8096 65.1615 22.915 65.1818 23.0212 65.1808C23.1275 65.1799 23.2325 65.1578 23.3301 65.1159C23.4277 65.074 23.516 65.013 23.5898 64.9366L28.6829 59.8462L30.3801 61.543L25.287 66.6342C25.1369 66.7843 25.0527 66.9879 25.0528 67.2001C25.0529 67.4123 25.1372 67.6158 25.2874 67.7658C25.4375 67.9158 25.6411 68.0001 25.8534 68C26.0657 67.9999 26.2692 67.9156 26.4192 67.7654L32.0773 62.1086C32.2273 61.9586 32.3116 61.7552 32.3116 61.543C32.3116 61.3309 32.2273 61.1275 32.0773 60.9774L23.5898 52.4918L24.7221 51.3598L32.6438 59.2798C32.7947 59.4256 32.9968 59.5062 33.2066 59.5044C33.4164 59.5026 33.6171 59.4184 33.7655 59.2701C33.9139 59.1218 33.998 58.9211 33.9998 58.7114C34.0017 58.5016 33.921 58.2995 33.7752 58.1486L32.6438 57.0174L34.341 55.3206C34.6894 54.9694 34.9208 54.5191 35.0035 54.0313C35.0861 53.5436 35.016 53.0422 34.8027 52.5958L42.1995 45.1998L48.5849 51.583L47.4534 52.715L42.7652 48.0286C42.6143 47.8829 42.4122 47.8023 42.2024 47.8041C41.9926 47.8059 41.7919 47.8901 41.6435 48.0384C41.4951 48.1867 41.411 48.3874 41.4092 48.5971C41.4073 48.8069 41.488 49.009 41.6338 49.1598L46.3212 53.8462L42.9949 57.171C42.8448 57.3211 42.7606 57.5245 42.7606 57.7366C42.7606 57.9488 42.8448 58.1522 42.9949 58.3022L50.3509 65.6566C51.8537 67.1461 53.8855 67.9797 56.0016 67.975C58.1178 67.9704 60.1459 67.1279 61.6422 65.6319C63.1385 64.1359 63.9812 62.1082 63.9858 59.9926C63.9905 57.8769 63.1567 55.8456 61.6669 54.343C61.5169 54.1931 61.3134 54.1088 61.1012 54.1088C60.889 54.1088 60.6855 54.1931 60.5355 54.343ZM23.5898 21.931L24.7221 23.0622L19.0632 28.7198L17.9318 27.5878L23.5898 21.931ZM21.8926 31.5478L20.1947 29.8502L25.8527 24.1942L27.5515 25.891C28.3018 26.6413 28.7233 27.6588 28.7232 28.7197C28.7231 29.7806 28.3015 30.7981 27.5511 31.5482C26.8007 32.2984 25.7829 32.7198 24.7218 32.7197C23.6606 32.7196 22.643 32.2981 21.8926 31.5478ZM52.4593 25.891L54.1581 24.1942L59.8161 29.8502L58.1182 31.5478C57.3679 32.2981 56.3502 32.7196 55.289 32.7197C54.2279 32.7198 53.2101 32.2984 52.4597 31.5482C51.7093 30.7981 51.2877 29.7806 51.2876 28.7197C51.2875 27.6588 51.709 26.6413 52.4593 25.891ZM51.3279 32.679C51.5191 32.8671 51.7234 33.0414 51.9392 33.2006L33.7752 51.3606L32.6438 50.2286L50.8078 32.0686C50.9666 32.284 51.1404 32.488 51.3279 32.679ZM33.2087 54.1894L31.5115 55.8862L28.1164 52.4918L29.8144 50.795C29.9667 50.6494 30.1693 50.5681 30.3801 50.5681C30.5909 50.5681 30.7935 50.6494 30.9458 50.795L33.2087 53.0574C33.2831 53.1317 33.3421 53.22 33.3824 53.3171C33.4227 53.4142 33.4434 53.5183 33.4434 53.6234C33.4434 53.7286 33.4227 53.8327 33.3824 53.9298C33.3421 54.0269 33.2831 54.1151 33.2087 54.1894ZM48.0183 54.4118L53.7452 48.687L54.8766 49.8182L45.8243 58.8686L44.692 57.7366L48.0183 54.4118Z" fill="white"/>
</svg>
