<svg width="59" height="64" viewBox="0 0 59 64" fill="none" xmlns="http://www.w3.org/2000/svg">
<path fill-rule="evenodd" clip-rule="evenodd" d="M27.4363 63.7719C28.096 63.9185 28.783 64 29.4973 64C30.217 64 30.904 63.9185 31.5637 63.7719C32.2289 63.6199 32.8777 63.4081 33.5211 63.1474C34.1209 62.903 34.7043 62.6206 35.2713 62.3219C35.882 61.9961 36.4327 61.6811 36.9616 61.3661C38.4555 60.4864 40.0585 59.5903 41.6888 58.678C45.3418 56.6306 49.1639 54.491 52.1682 52.3133L52.1845 52.3024C53.9239 51.124 55.6359 49.951 56.8899 47.9471C58.1494 45.9269 58.9836 43.0269 58.9782 38.3674L59 32.0027L58.9891 25.6326H58.9836C58.9836 16.2973 55.5868 14.0002 52.1028 11.6433H52.0973L51.2795 11.0839L36.9616 2.63386C36.4327 2.31888 35.882 2.0039 35.2713 1.6835C34.7043 1.37938 34.1209 1.09699 33.5211 0.852609C32.8777 0.591939 32.2289 0.380144 31.5637 0.233517C30.904 0.0868901 30.217 0 29.4973 0C28.783 0 28.096 0.0868901 27.4363 0.233517C26.7711 0.380144 26.1168 0.591939 25.4789 0.852609C24.8791 1.09699 24.2957 1.37938 23.7232 1.6835C23.1344 1.99304 22.5782 2.31345 22.033 2.63386L7.72054 11.0839L6.89724 11.6433C3.40773 14.0002 0.0109047 16.2973 0.0163571 25.6326L0 32.0027L0.0109047 38.3674C0.0109047 43.0269 0.845116 45.9269 2.11006 47.9471C3.35865 49.951 5.0707 51.124 6.81545 52.3024L6.83181 52.3133C9.83061 54.491 13.6527 56.6306 17.3003 58.6726C18.9361 59.5903 20.539 60.4864 22.033 61.3661C22.5782 61.6866 23.1344 62.007 23.7232 62.3219C24.2957 62.6206 24.8791 62.903 25.4789 63.1474C26.1168 63.4081 26.7711 63.6199 27.4363 63.7719ZM36.2637 14.0328H22.7309C16.5043 14.0328 11.4554 19.0615 11.4554 25.2633V38.7367C11.4554 44.9439 16.5043 49.9727 22.7309 49.9727H36.2637C42.4902 49.9727 47.5391 44.9439 47.5391 38.7367V25.2633C47.5391 19.0615 42.4902 14.0328 36.2637 14.0328ZM40.3965 22.3416C40.3965 21.6791 39.8622 21.1469 39.197 21.1469C38.5318 21.1469 37.9921 21.6791 37.9921 22.3416C37.9921 23.0042 38.5318 23.5364 39.197 23.5364C39.8622 23.5364 40.3965 23.0042 40.3965 22.3416ZM29.4973 23.015C24.5193 23.015 20.4791 27.0391 20.4791 32.0027C20.4791 36.9609 24.5193 40.985 29.4973 40.985C34.4807 40.985 38.5209 36.9609 38.5209 32.0027C38.5209 27.0391 34.4807 23.015 29.4973 23.015ZM29.4973 37.618C26.3894 37.618 23.8595 35.0982 23.8595 32.0027C23.8595 28.9018 26.3894 26.3874 29.4973 26.3874C32.6051 26.3874 35.135 28.9018 35.135 32.0027C35.135 35.0982 32.6051 37.618 29.4973 37.618ZM44.1587 38.7367C44.1587 43.0758 40.6146 46.6003 36.2637 46.6003H22.7309C18.3799 46.6003 14.8413 43.0758 14.8413 38.7367V25.2633C14.8413 20.9242 18.3799 17.3997 22.7309 17.3997H36.2637C40.6146 17.3997 44.1587 20.9242 44.1587 25.2633V38.7367Z" fill="#14B487"/>
</svg>
