<svg width="44" height="48" viewBox="0 0 44 48" fill="none" xmlns="http://www.w3.org/2000/svg">
<path fill-rule="evenodd" clip-rule="evenodd" d="M20.4598 47.8268C20.952 47.9368 21.464 48 22 48C22.536 48 23.048 47.9368 23.5402 47.8268C24.0351 47.716 24.5214 47.5547 24.999 47.3603C25.4452 47.1783 25.8808 46.9658 26.3069 46.7387C26.7607 46.497 27.1708 46.259 27.5665 46.0255L27.5661 46.0248C28.6804 45.3637 29.8735 44.692 31.0924 44.0061C33.8158 42.4734 36.6682 40.868 38.9064 39.2357L38.9187 39.2269C40.217 38.3444 41.4936 37.4625 42.4276 35.9595C43.3692 34.444 43.9893 32.2691 43.987 28.7751L44 24.0001L43.9917 19.2249H43.99C43.99 12.2227 41.4565 10.4994 38.857 8.73105L38.8554 8.73035L38.8549 8.73082L38.2432 8.31102L27.5661 1.97524L27.5665 1.97431C27.1708 1.74073 26.7605 1.50274 26.3066 1.26103C25.8806 1.03418 25.4452 0.821954 24.999 0.640149C24.5217 0.445341 24.0353 0.283969 23.5404 0.173214C23.0483 0.0631558 22.536 0 22 0C21.464 0 20.9517 0.0631558 20.4596 0.173214C19.9644 0.283969 19.4783 0.445341 19.001 0.640149C18.555 0.821721 18.1194 1.03394 17.6934 1.26079C17.2546 1.49438 16.8387 1.73585 16.4337 1.97524L5.75662 8.31102L5.14509 8.73082L5.14463 8.73035L5.14278 8.73128C2.54253 10.4999 0.00834528 12.2239 0.0127497 19.2249L0 24.0001L0.00811346 28.7751H0.00996797C0.00996797 32.271 0.630532 34.4457 1.57169 35.9595C2.50636 37.4625 3.78296 38.3444 5.08135 39.2269L5.0934 39.2357C7.33063 40.8669 10.1819 42.4718 12.9041 44.004C14.1244 44.6908 15.3187 45.363 16.4337 46.0248C16.8384 46.2637 17.2541 46.5052 17.6931 46.739C18.1192 46.9661 18.5548 47.1783 19.001 47.3603C19.4783 47.5547 19.9647 47.716 20.4598 47.8268Z" fill="#0EA57A"/>
<path d="M33.5606 15H33.5715H33.5837V15.0015H33.5945L33.6054 15.0029L33.6162 15.0044L33.6271 15.0058L33.6379 15.0073L33.6488 15.0102L33.6596 15.0116L33.6705 15.0146L33.6813 15.0175L33.6908 15.0218L33.7017 15.0247L33.7112 15.0291L33.722 15.032V15.0335L33.7315 15.0364L33.741 15.0422L33.7505 15.0466L33.76 15.0509L33.7695 15.0568L33.779 15.0626L33.7885 15.0684L33.7966 15.0742L33.8061 15.08L33.8142 15.0873L33.8237 15.0931L33.8318 15.1004L33.84 15.1077L33.8481 15.115L33.8563 15.1222L33.863 15.1295L33.8712 15.1382L33.878 15.1455L33.8847 15.1543L33.8929 15.163L33.8997 15.1717L33.9051 15.1805L33.9119 15.1892L33.9186 15.1979L33.9241 15.2081L33.9308 15.2168L33.9363 15.227L33.9417 15.2372L33.9458 15.2459L33.9512 15.2561L33.9566 15.2663L33.9607 15.2765L33.9647 15.2881L33.9688 15.2983L33.9729 15.3085L33.9769 15.3202L33.9797 15.3303L33.9824 15.342L33.9851 15.3536L33.9878 15.3638V15.3653L33.9905 15.3755L33.9919 15.3871L33.9946 15.3987L33.9959 15.4104L33.9973 15.422V15.4235L33.9986 15.4351V15.4468V15.4584L34 15.4715V15.4788V32.5227V32.53C34 32.789 33.8034 33 33.5606 33H10.4394H10.4326H10.4272H10.4217H10.4163H10.4095L10.4055 32.9985H10.4041H10.3987H10.3933L10.3865 32.9971H10.3811L10.3756 32.9956H10.3716L10.3702 32.9942H10.3634L10.3607 32.9927H10.358L10.3526 32.9913H10.3499L10.3472 32.9898L10.3417 32.9884L10.3241 32.984L10.3187 32.9825L10.3133 32.9811L10.3078 32.9796L10.3024 32.9767L10.2983 32.9753H10.297L10.2916 32.9738L10.2875 32.9723L10.2861 32.9709L10.2807 32.9694L10.278 32.968L10.2753 32.9665L10.2699 32.9636H10.2685L10.2644 32.9622L10.259 32.9593H10.2577L10.2536 32.9563L10.2482 32.9534L10.2427 32.9505L10.2387 32.9491L10.2373 32.9476L10.2319 32.9447L10.2292 32.9432L10.221 32.9374L10.217 32.936L10.2115 32.9331V32.9316L10.2021 32.9258L10.1966 32.9229L10.1939 32.92L10.1871 32.9156L10.1844 32.9141L10.1817 32.9112L10.1776 32.9083L10.1763 32.9069L10.1722 32.904L10.1682 32.8996L10.16 32.8923H10.1587L10.1532 32.8879L10.1519 32.885L10.1492 32.8836L10.1451 32.8792L10.1437 32.8778L10.1397 32.8748L10.1356 32.8705L10.1315 32.8661L10.1288 32.8632L10.1275 32.8617L10.1234 32.8559L10.1207 32.8545L10.118 32.8516L10.1139 32.8472V32.8457L10.1098 32.8414L10.1071 32.8385L10.1058 32.837L10.1004 32.8297L10.099 32.8268L10.0936 32.821L10.0922 32.8181L10.0868 32.8108L10.0854 32.8079L10.0814 32.8021L10.0787 32.7992L10.0746 32.7934L10.0719 32.789L10.0692 32.7832L10.0664 32.7788L10.0637 32.7744L10.061 32.7686L10.0583 32.7642L10.0556 32.7584L10.0529 32.7541L10.0502 32.7482L10.0475 32.7439L10.0448 32.7381L10.0434 32.7337L10.0407 32.7279L10.0393 32.7235L10.0366 32.7162L10.0339 32.7133L10.0325 32.706L10.0298 32.7017L10.0285 32.6959L10.0244 32.6842L10.0231 32.6813L10.0217 32.674L10.0203 32.6697L10.0176 32.6624C10.0149 32.6522 10.0122 32.6406 10.0095 32.6289V32.6245L10.0081 32.6187C10.0041 32.5998 10.0027 32.5809 10.0014 32.562L10 32.5532V32.5503V32.53V15.4715V15.4497V15.4468L10.0014 15.438C10.0027 15.4235 10.0041 15.4075 10.0054 15.3929L10.0068 15.3871L10.0081 15.3827L10.0095 15.3755V15.3711V15.3696L10.0149 15.3493L10.0163 15.342L10.0176 15.3376L10.0203 15.3303L10.0217 15.3274L10.0231 15.3202L10.0244 15.3158L10.0271 15.3085L10.0285 15.3056L10.0298 15.2983L10.0325 15.294L10.0339 15.2881L10.0366 15.2838L10.0393 15.2765L10.0407 15.2736L10.0434 15.2663L10.0475 15.2561L10.0502 15.2518L10.0529 15.2459L10.0583 15.2372L10.061 15.2314L10.0637 15.227L10.0664 15.2212L10.0692 15.2168L10.0719 15.211L10.0746 15.2081L10.0787 15.2023L10.0814 15.1979L10.0854 15.1921L10.0868 15.1892L10.0922 15.1819L10.0936 15.1805L10.099 15.1732L10.1004 15.1717L10.1058 15.1644L10.1071 15.163L10.1098 15.1586L10.118 15.1484L10.1207 15.1455L10.1234 15.1441L10.1315 15.1353L10.1356 15.1295L10.1492 15.1164L10.1519 15.115C10.179 15.0902 10.2075 15.0699 10.2373 15.0524L10.2387 15.0509L10.2427 15.0495L10.2482 15.0466L10.2536 15.0437L10.2577 15.0422L10.2685 15.0364H10.2699L10.2753 15.0335H10.278L10.2807 15.032L10.2861 15.0291H10.2875L10.2916 15.0276L10.297 15.0247H10.2983L10.3024 15.0233L10.3078 15.0218L10.3133 15.0189L10.3187 15.0175L10.3241 15.016L10.3295 15.0146L10.3363 15.0131L10.339 15.0116H10.3417L10.3472 15.0102H10.3499L10.3526 15.0087H10.358L10.3607 15.0073H10.3634L10.3702 15.0058H10.3716L10.3756 15.0044H10.3811H10.3824L10.3865 15.0029H10.3933L10.3987 15.0015H10.4041H10.4055H10.4095L10.4394 15H33.5606V15ZM19.6702 24.6221L11.6205 32.0585H32.3917L24.445 24.6236L22.3607 26.5736C22.1953 26.7293 21.9498 26.7264 21.7871 26.5751V26.5765L19.6702 24.6221ZM25.1109 24.0007L33.1213 31.4967V16.5033L25.1109 24.0007ZM10.8774 31.5025L18.9976 24.0007L10.8774 16.4975V31.5025ZM11.6205 15.9415L22.0719 25.5971L32.3917 15.9415H11.6205Z" fill="white"/>
</svg>
