<svg width="57" height="49" viewBox="0 0 57 49" fill="none" xmlns="http://www.w3.org/2000/svg">
<path d="M2.05239 41.9511H14.964V39.9446V39.7761V39.7697V39.7315L14.9672 39.6234V39.5948L14.9704 39.5185L14.9736 39.4199V39.4104L14.9768 39.3054L14.9799 39.2991L14.9831 39.1973L14.9895 39.0924L14.9958 39.0129V38.9875L15.0022 38.9048L15.0054 38.8825L15.0149 38.7776V38.7744C15.2945 35.5023 16.7496 32.5514 18.9513 30.3478C19.4247 29.8708 19.9362 29.432 20.4795 29.0281C20.2571 26.7832 19.2213 24.7671 17.6773 23.2821C16.0157 21.6827 13.7599 20.6969 11.285 20.6969C8.7465 20.6969 6.43677 21.7367 4.76562 23.4125C3.0913 25.0883 2.05239 27.4 2.05239 29.9408V41.9511V41.9511ZM17.0133 46.8926H40.063V42.975V39.9446V39.8524V39.7951V39.7602L40.0598 39.668V39.6489L40.0566 39.5789L40.0535 39.4994V39.4867L40.0503 39.3945L40.0471 39.3531V39.3054L40.0407 39.2132V39.2069L40.0344 39.1242L40.0312 39.0606L40.028 39.0352L40.0185 38.9429V38.9143C40.0058 38.7744 39.9899 38.6345 39.9708 38.4978V38.4819C39.6373 35.8935 38.4395 33.5626 36.6762 31.7978C34.5889 29.7086 31.7073 28.4112 28.5397 28.4112C25.369 28.4112 22.4906 29.7086 20.4 31.7978C18.4747 33.728 17.223 36.3291 17.0387 39.2069L17.0355 39.2196L17.0323 39.3086L17.0292 39.3531L17.026 39.3977L17.0228 39.4899V39.4994L17.0196 39.5789L17.0164 39.6489V39.6711V39.7633L17.0133 39.7951V39.8524V39.9446V42.975V46.8926V46.8926ZM41.0892 48.9436H15.9871C15.4215 48.9436 14.964 48.4857 14.964 47.9165V44.0021H1.0262C0.460677 44.0021 0 43.5442 0 42.975V29.9408C0 26.834 1.27083 24.0071 3.3137 21.9625C4.5051 20.77 5.9602 19.8415 7.57734 19.2755C6.43677 18.7922 5.41057 18.0926 4.5464 17.2277C2.82125 15.501 1.75375 13.1161 1.75375 10.4832C1.75375 7.85026 2.82125 5.46537 4.5464 3.7387C6.27156 2.01204 8.65437 0.943604 11.285 0.943604C13.9188 0.943604 16.3016 2.01204 18.0268 3.7387C19.1927 4.90571 20.0569 6.37481 20.4953 8.01879C22.5604 5.97096 25.4039 4.70856 28.5397 4.70856C31.6469 4.70856 34.465 5.9487 36.5237 7.96156C36.9717 6.32393 37.8422 4.86437 39.0114 3.70372C40.7365 1.99932 43.1035 0.943604 45.715 0.943604C48.3456 0.943604 50.7284 2.01204 52.4536 3.7387C54.1788 5.46537 55.2463 7.85026 55.2463 10.4832C55.2463 13.1161 54.1788 15.501 52.4536 17.2277C51.5894 18.0926 50.5632 18.7922 49.4227 19.2755C51.043 19.8415 52.4949 20.77 53.6863 21.9625C55.7292 24.0071 57 26.834 57 29.9408V42.975C57 43.5442 56.5425 44.0021 55.9738 44.0021H42.1154V47.9165C42.1154 48.4857 41.6547 48.9436 41.0892 48.9436V48.9436ZM22.373 27.8484C23.1069 27.47 23.8789 27.1584 24.6827 26.9199C23.5263 26.5033 22.4524 25.9055 21.5025 25.1614C21.8996 26.0073 22.1951 26.9072 22.373 27.8484V27.8484ZM32.3935 26.9199C33.1719 27.152 33.9217 27.4509 34.6334 27.8134C34.8081 26.9167 35.0845 26.0613 35.4562 25.2536C34.5349 25.9564 33.5055 26.5192 32.3935 26.9199ZM36.5269 28.9741C37.0956 29.3906 37.6293 29.8517 38.1281 30.3478C40.206 32.4306 41.6198 35.1812 42.0074 38.2402L42.0201 38.3451C42.0328 38.4501 42.0423 38.555 42.055 38.6599V38.6631L42.0645 38.768L42.0709 38.873L42.0741 38.9048L42.0804 38.9779L42.0868 39.0765V39.086L42.0931 39.191L42.0995 39.2959V39.2991L42.1027 39.4072L42.1058 39.4708L42.109 39.5121V39.5948V39.6203L42.1122 39.7284V39.7697V39.7729L42.1154 39.9446V41.9511H54.9508V29.9408C54.9508 27.4 53.9087 25.0883 52.2376 23.4125C50.5632 21.7367 48.2535 20.6969 45.715 20.6969C43.2432 20.6969 40.997 21.6763 39.3386 23.263C37.7977 24.7385 36.762 26.7418 36.5269 28.9741V28.9741ZM38.2393 10.0952C39.1829 11.6089 39.7834 13.3578 39.9327 15.2371C40.5999 16.0479 41.4355 16.7189 42.3886 17.1927C43.3862 17.6888 44.5173 17.9686 45.715 17.9686C47.7801 17.9686 49.6514 17.1323 51.0048 15.7777C52.3583 14.423 53.1939 12.5501 53.1939 10.4832C53.1939 8.41628 52.3583 6.54334 51.0048 5.18872C49.6514 3.8341 47.7801 2.99779 45.715 2.99779C43.6594 2.99779 41.804 3.82138 40.4538 5.15692C39.167 6.43204 38.3378 8.16825 38.2393 10.0952ZM39.8215 17.9813C39.6531 19.0211 39.3481 20.0164 38.9192 20.9417C39.8501 20.2358 40.889 19.6698 42.0105 19.2755C41.8294 19.1992 41.6515 19.1165 41.4736 19.0275C40.8858 18.7349 40.333 18.382 39.8215 17.9813ZM18.2015 21.0308C17.744 20.0609 17.4168 19.0179 17.2484 17.9241C16.7369 18.3343 16.1809 18.6936 15.5931 18.9925C15.3961 19.0942 15.1928 19.1865 14.9895 19.2723C16.1586 19.6825 17.242 20.2803 18.2015 21.0308V21.0308ZM17.1531 15.129C17.3119 13.3451 17.8774 11.6756 18.7607 10.2193C18.6939 8.25728 17.8711 6.4861 16.5748 5.18872C15.2214 3.8341 13.3533 2.99779 11.285 2.99779C9.21989 2.99779 7.34859 3.8341 5.99515 5.18872C4.64171 6.54334 3.80614 8.41628 3.80614 10.4832C3.80614 12.5501 4.64171 14.423 5.99515 15.7777C7.34859 17.1323 9.21989 17.9686 11.285 17.9686C12.5082 17.9686 13.6583 17.6792 14.6718 17.1641C15.6376 16.6744 16.4859 15.9748 17.1531 15.129ZM35.1703 9.51015C33.4737 7.8121 31.129 6.75957 28.5397 6.75957C25.9504 6.75957 23.6025 7.80892 21.906 9.51015C20.2094 11.2082 19.161 13.5549 19.161 16.1465C19.161 18.7381 20.2094 21.0848 21.906 22.7829C23.6025 24.4841 25.9504 25.5335 28.5397 25.5335C31.129 25.5335 33.4737 24.4841 35.1703 22.7829C36.8668 21.0848 37.9185 18.7381 37.9185 16.1465C37.9185 15.094 37.7437 14.0796 37.426 13.1352L37.4228 13.132C36.9558 11.752 36.1774 10.515 35.1703 9.51015V9.51015Z" fill="#333333"/>
</svg>
