<svg width="44" height="48" viewBox="0 0 44 48" fill="none" xmlns="http://www.w3.org/2000/svg">
<path fill-rule="evenodd" clip-rule="evenodd" d="M20.4598 47.8268C20.952 47.9368 21.464 48 22 48C22.536 48 23.048 47.9368 23.5402 47.8268C24.0351 47.716 24.5214 47.5547 24.999 47.3603C25.4452 47.1783 25.8808 46.9658 26.3069 46.7387C26.7607 46.497 27.1708 46.259 27.5665 46.0255L27.5661 46.0248C28.6804 45.3637 29.8735 44.692 31.0924 44.0061C33.8158 42.4734 36.6682 40.868 38.9064 39.2357L38.9187 39.2269C40.217 38.3444 41.4936 37.4625 42.4276 35.9595C43.3692 34.444 43.9893 32.2691 43.987 28.7751L44 24.0001L43.9917 19.2249H43.99C43.99 12.2227 41.4565 10.4994 38.857 8.73105L38.8554 8.73035L38.8549 8.73082L38.2432 8.31102L27.5661 1.97524L27.5665 1.97431C27.1708 1.74073 26.7605 1.50274 26.3066 1.26103C25.8806 1.03418 25.4452 0.821954 24.999 0.640149C24.5217 0.445341 24.0353 0.283969 23.5404 0.173214C23.0483 0.0631558 22.536 0 22 0C21.464 0 20.9517 0.0631558 20.4596 0.173214C19.9644 0.283969 19.4783 0.445341 19.001 0.640149C18.555 0.821721 18.1194 1.03394 17.6934 1.26079C17.2546 1.49438 16.8387 1.73585 16.4337 1.97524L5.75662 8.31102L5.14509 8.73082L5.14463 8.73035L5.14278 8.73128C2.54253 10.4999 0.00834528 12.2239 0.0127497 19.2249L0 24.0001L0.00811346 28.7751H0.00996797C0.00996797 32.271 0.630532 34.4457 1.57169 35.9595C2.50636 37.4625 3.78296 38.3444 5.08135 39.2269L5.0934 39.2357C7.33063 40.8669 10.1819 42.4718 12.9041 44.004C14.1244 44.6908 15.3187 45.363 16.4337 46.0248C16.8384 46.2637 17.2541 46.5052 17.6931 46.739C18.1192 46.9661 18.5548 47.1783 19.001 47.3603C19.4783 47.5547 19.9647 47.716 20.4598 47.8268Z" fill="#0EA57A"/>
<path d="M14.0221 16.9677C13.5513 17.3824 13.1263 17.8029 12.7828 18.2863C12.4466 18.7594 12.1818 19.2997 12.0173 19.9729C11.6652 21.4113 12.0917 23.0337 12.863 24.5889C14.0278 26.9355 15.9682 29.1157 17.2575 30.354C17.7512 30.8272 18.1934 31.239 18.6513 31.623C19.1092 32.0085 19.5958 32.3751 20.1796 32.7635C21.7351 33.793 23.677 34.7831 25.6117 35.0299C27.0369 35.2109 28.4622 34.9846 29.7186 34.0544C29.9104 33.9142 30.2009 33.6499 30.4527 33.3754V33.3724C30.6459 33.1622 30.8133 32.9533 30.8849 32.8029C30.9664 32.6335 31.0623 32.102 31.0981 31.6084C31.1196 31.2915 31.1296 31.0316 31.1095 31.0083C31.068 30.9586 30.6373 30.7206 30.0964 30.4329C29.1705 29.9422 28.0086 29.3713 27.7195 29.2428C27.4977 29.1449 27.3661 29.0836 27.2516 29.0296C26.8853 28.8573 26.7021 28.7711 26.6305 28.8047C26.4731 28.8792 26.2256 29.2077 25.7319 29.8619L25.709 29.8911C25.5415 30.1146 25.3498 30.3672 25.2181 30.5395C25.1437 30.6373 25.065 30.7469 24.9963 30.8418C24.3996 31.6741 24.3867 31.6902 23.0273 31.1324C22.4077 30.8797 21.8038 30.5526 21.2486 30.1949C20.6218 29.7918 20.0537 29.3465 19.5872 28.9201C19.0005 28.3827 18.4009 27.8 17.85 27.1692C17.2919 26.531 16.781 25.8403 16.3789 25.0956C15.9067 24.2223 16.1042 23.9916 16.6751 23.3257C16.8969 23.0658 17.2003 22.7109 17.5552 22.1327C17.88 21.6041 17.8385 21.5106 17.6582 21.1061C17.5981 20.9688 17.5251 20.8067 17.4493 20.6154L17.3577 20.3818C17.0186 19.5202 16.0841 17.1444 15.9081 16.9939C15.8552 16.9487 15.2098 16.9414 14.7218 16.9341C14.563 16.9326 14.4185 16.9312 14.314 16.9268C14.1852 16.9224 14.128 16.9166 14.0822 16.9136L14.0478 16.9093C14.0593 16.9122 14.0807 16.9166 14.0579 16.9355L14.0221 16.9677ZM17.3048 14.8517C17.0601 14.824 16.8826 14.5991 16.9098 14.3494C16.937 14.0997 17.1574 13.9186 17.4021 13.9463C18.2249 14.0427 19.0148 14.3465 19.6945 14.8327C20.3485 15.3015 20.9023 15.9396 21.2815 16.7238C21.6607 17.5065 21.8224 18.3418 21.7909 19.1581C21.758 20.0036 21.5162 20.8286 21.0926 21.5529C20.9667 21.7691 20.6934 21.8392 20.4816 21.7107C20.2712 21.5821 20.2025 21.3018 20.3285 21.0871C20.6762 20.4928 20.8737 19.8167 20.9008 19.123C20.9266 18.4542 20.7935 17.7694 20.4816 17.1268C20.171 16.4858 19.7174 15.9615 19.1808 15.5775C18.6241 15.1788 17.9773 14.9291 17.3048 14.8517ZM17.9187 12.9008C17.6768 12.857 17.5166 12.6204 17.5595 12.3736C17.6024 12.1268 17.8342 11.9633 18.0761 12.0071C19.1379 12.2028 20.1467 12.6496 21.0153 13.3155C21.8539 13.958 22.5608 14.805 23.0559 15.8272C23.5525 16.8494 23.7829 17.9358 23.7757 19.0033C23.7686 20.1131 23.5038 21.2039 23.013 22.1838C22.9014 22.4072 22.6323 22.4963 22.4134 22.3824C22.1959 22.267 22.1086 21.9939 22.2202 21.7705C22.6481 20.9163 22.8785 19.9671 22.8856 19.0004C22.8914 18.0702 22.6896 17.1225 22.2574 16.2302C21.8238 15.338 21.2099 14.6006 20.4816 14.0427C19.7231 13.4615 18.8431 13.0716 17.9187 12.9008ZM12.0588 17.7518C12.4494 17.2042 12.9202 16.7369 13.4397 16.2799L13.4754 16.2477C13.6257 16.1149 13.6915 16.0565 13.8475 16.017C13.9548 15.9907 14.0235 15.9951 14.1408 16.0039L14.1523 16.0053C14.2124 16.0097 14.2911 16.0156 14.3455 16.0185C14.46 16.0229 14.5902 16.0243 14.7318 16.0258C15.3558 16.0345 16.1814 16.0448 16.4777 16.2959C16.8297 16.5953 17.8242 19.1245 18.1848 20.043L18.2764 20.2723C18.3508 20.4592 18.4166 20.6067 18.4725 20.7323C18.8116 21.496 18.8903 21.6727 18.3122 22.6131C17.9258 23.2454 17.5895 23.6382 17.3448 23.9244C17.0815 24.2326 16.99 24.3392 17.1617 24.6575C17.5266 25.3351 17.9974 25.9703 18.5168 26.5632C19.0434 27.1648 19.6187 27.7255 20.1854 28.2439C20.6189 28.6411 21.1455 29.0529 21.7237 29.4253C22.236 29.7553 22.7912 30.0562 23.3579 30.2883C24.0762 30.5833 24.0819 30.5775 24.278 30.3044C24.3381 30.2182 24.4096 30.1189 24.517 29.9802C24.7531 29.6721 24.8862 29.4939 25.0035 29.3392L25.0235 29.3099C25.6074 28.5345 25.8993 28.1476 26.257 27.9782C26.7007 27.7679 27.0083 27.9125 27.6251 28.2031C27.7753 28.2731 27.9456 28.3535 28.0715 28.409C28.3878 28.5491 29.5913 29.1376 30.5085 29.6239C31.1324 29.9554 31.6576 30.2635 31.7835 30.4125C31.9796 30.6446 32.0254 31.1484 31.9882 31.6727C31.9467 32.2626 31.8093 32.9431 31.6848 33.2031C31.5675 33.444 31.3471 33.7302 31.1024 33.996C30.8033 34.3202 30.4642 34.6283 30.2424 34.7933C28.7785 35.8754 27.1357 36.1426 25.5029 35.9352C23.4137 35.668 21.343 34.6181 19.6945 33.5258C19.0821 33.1198 18.5712 32.7328 18.0847 32.3254C17.5981 31.9165 17.1459 31.496 16.6465 31.0156C15.3071 29.7305 13.288 27.4598 12.0673 24.9977C11.2088 23.2659 10.7394 21.4332 11.1515 19.7524C11.3461 18.9551 11.6595 18.314 12.0588 17.7518Z" fill="white"/>
</svg>
