<svg width="44" height="48" viewBox="0 0 44 48" fill="none" xmlns="http://www.w3.org/2000/svg">
<path fill-rule="evenodd" clip-rule="evenodd" d="M20.4598 47.8268C20.952 47.9368 21.464 48 22 48C22.536 48 23.048 47.9368 23.5402 47.8268C24.0351 47.716 24.5214 47.5547 24.999 47.3603C25.4452 47.1783 25.8808 46.9658 26.3069 46.7387C26.7607 46.497 27.1708 46.259 27.5665 46.0255L27.5661 46.0248C28.6804 45.3637 29.8735 44.692 31.0924 44.0061C33.8158 42.4734 36.6682 40.868 38.9064 39.2357L38.9187 39.2269C40.217 38.3444 41.4936 37.4625 42.4276 35.9595C43.3692 34.444 43.9893 32.2691 43.987 28.7751L44 24.0001L43.9917 19.2249H43.99C43.99 12.2227 41.4565 10.4994 38.857 8.73105L38.8554 8.73035L38.8549 8.73082L38.2432 8.31102L27.5661 1.97524L27.5665 1.97431C27.1708 1.74073 26.7605 1.50274 26.3066 1.26103C25.8806 1.03418 25.4452 0.821954 24.999 0.640149C24.5217 0.445341 24.0353 0.283969 23.5404 0.173214C23.0483 0.0631558 22.536 0 22 0C21.464 0 20.9517 0.0631558 20.4596 0.173214C19.9644 0.283969 19.4783 0.445341 19.001 0.640149C18.555 0.821721 18.1194 1.03394 17.6934 1.26079C17.2546 1.49438 16.8387 1.73585 16.4337 1.97524L5.75662 8.31102L5.14509 8.73082L5.14463 8.73035L5.14278 8.73128C2.54253 10.4999 0.00834528 12.2239 0.0127497 19.2249L0 24.0001L0.00811346 28.7751H0.00996797C0.00996797 32.271 0.630532 34.4457 1.57169 35.9595C2.50636 37.4625 3.78296 38.3444 5.08135 39.2269L5.0934 39.2357C7.33063 40.8669 10.1819 42.4718 12.9041 44.004C14.1244 44.6908 15.3187 45.363 16.4337 46.0248C16.8384 46.2637 17.2541 46.5052 17.6931 46.739C18.1192 46.9661 18.5548 47.1783 19.001 47.3603C19.4783 47.5547 19.9647 47.716 20.4598 47.8268Z" fill="#0EA57A"/>
<path d="M22 12C15.3727 12 10 17.3727 10 24C10 30.6273 15.3727 36 22 36C28.6273 36 34 30.6273 34 24C33.9926 17.3758 28.6242 12.0074 22 12ZM32.3783 28.2039L28.9656 28.7928C29.3563 27.3602 29.5672 25.8846 29.5936 24.4H33.19C33.1449 25.7059 32.8701 26.9936 32.3783 28.2039ZM10.81 24.4H14.4064C14.4328 25.8846 14.6438 27.3602 15.0344 28.7928L11.6217 28.2039C11.1299 26.9936 10.8551 25.7059 10.81 24.4ZM11.6217 19.7961L15.0344 19.2072C14.6438 20.6398 14.4328 22.1154 14.4064 23.6H10.81C10.8551 22.2941 11.1299 21.0064 11.6217 19.7961ZM22.4 18.4225C23.8373 18.4408 25.2711 18.5717 26.6881 18.8141L28.1 19.0576C28.5338 20.5338 28.7672 22.0615 28.7939 23.6H22.4V18.4225ZM26.8244 18.0256C25.3625 17.7758 23.883 17.6408 22.4 17.6225V12.8225C24.6932 13.0428 26.6852 15.1424 27.8141 18.198L26.8244 18.0256ZM21.6 17.6225C20.117 17.6408 18.6379 17.7758 17.176 18.0256L16.1859 18.1969C17.3148 15.1404 19.3068 13.04 21.6 12.8207V17.6225ZM17.3123 18.8141C18.7291 18.5717 20.1627 18.4408 21.6 18.4225V23.6H15.2061C15.2328 22.0615 15.4662 20.5338 15.9 19.0576L17.3123 18.8141ZM15.2061 24.4H21.6V29.5775C20.1627 29.5592 18.7289 29.4283 17.3119 29.1859L15.9 28.9424C15.4662 27.4662 15.2328 25.9385 15.2061 24.4ZM17.1756 29.9744C18.6375 30.2246 20.1168 30.3602 21.6 30.3797V35.1797C19.3068 34.9592 17.3148 32.8596 16.1859 29.8039L17.1756 29.9744ZM22.4 30.3797C23.883 30.3602 25.3621 30.2246 26.824 29.9744L27.8141 29.8031C26.6852 32.8596 24.6932 34.96 22.4 35.1793V30.3797ZM26.6877 29.1859C25.2709 29.4283 23.8373 29.5592 22.4 29.5775V24.4H28.7939C28.7672 25.9385 28.5338 27.4662 28.1 28.9424L26.6877 29.1859ZM29.5936 23.6C29.5672 22.1154 29.3563 20.6398 28.9656 19.2072L32.3783 19.7961C32.8701 21.0064 33.1449 22.2941 33.19 23.6H29.5936ZM31.9736 18.9145L28.7023 18.35C28.1143 16.4314 27.0141 14.7096 25.5199 13.3699C28.3139 14.3023 30.6309 16.2928 31.9736 18.9145ZM18.4801 13.3699C16.9859 14.7096 15.8857 16.4314 15.2977 18.35L12.0264 18.9145C13.3691 16.2928 15.6861 14.3023 18.4801 13.3699ZM12.0264 29.0855L15.2977 29.65C15.8857 31.5686 16.9859 33.2904 18.4801 34.6301C15.6861 33.6977 13.3691 31.7072 12.0264 29.0855ZM25.5199 34.6301C27.0141 33.2904 28.1143 31.5686 28.7023 29.65L31.9736 29.0855C30.6309 31.7072 28.3139 33.6977 25.5199 34.6301Z" fill="white"/>
</svg>
