<svg width="59" height="64" viewBox="0 0 59 64" fill="none" xmlns="http://www.w3.org/2000/svg">
<path fill-rule="evenodd" clip-rule="evenodd" d="M27.4363 63.7719C28.096 63.9185 28.783 64 29.4973 64C30.217 64 30.904 63.9185 31.5637 63.7719C32.2289 63.6199 32.8777 63.4081 33.5211 63.1474C34.1209 62.903 34.7043 62.6206 35.2713 62.3219C35.882 61.9961 36.4327 61.6811 36.9616 61.3661C38.4555 60.4864 40.0585 59.5903 41.6888 58.678C45.3418 56.6306 49.1639 54.491 52.1682 52.3133L52.1845 52.3024C53.9239 51.124 55.6359 49.951 56.8899 47.9471C58.1494 45.9269 58.9836 43.0269 58.9782 38.3674L59 32.0027L58.9891 25.6326H58.9836C58.9836 16.2973 55.5868 14.0002 52.1028 11.6433H52.0973L51.2795 11.0839L36.9616 2.63386C36.4327 2.31888 35.882 2.0039 35.2713 1.6835C34.7043 1.37938 34.1209 1.09699 33.5211 0.852609C32.8777 0.591939 32.2289 0.380144 31.5637 0.233517C30.904 0.0868901 30.217 0 29.4973 0C28.783 0 28.096 0.0868901 27.4363 0.233517C26.7711 0.380144 26.1168 0.591939 25.4789 0.852609C24.8791 1.09699 24.2957 1.37938 23.7232 1.6835C23.1344 1.99304 22.5782 2.31345 22.033 2.63386L7.72054 11.0839L6.89724 11.6433C3.40773 14.0002 0.0109047 16.2973 0.0163571 25.6326L0 32.0027L0.0109047 38.3674C0.0109047 43.0269 0.845116 45.9269 2.11006 47.9471C3.35865 49.951 5.0707 51.124 6.81545 52.3024L6.83181 52.3133C9.83061 54.491 13.6527 56.6306 17.3003 58.6726C18.9361 59.5903 20.539 60.4864 22.033 61.3661C22.5782 61.6866 23.1344 62.007 23.7232 62.3219C24.2957 62.6206 24.8791 62.903 25.4789 63.1474C26.1168 63.4081 26.7711 63.6199 27.4363 63.7719ZM49.6547 41.1425C49.5456 40.9578 48.8641 39.4807 45.5817 36.445C42.1413 33.2681 42.6048 33.784 46.7431 28.2882C49.2675 24.9375 50.2762 22.8955 49.96 22.0212C49.6601 21.1903 47.8063 21.4076 47.8063 21.4076L41.6342 21.4456C41.6342 21.4456 41.1817 21.3804 40.8382 21.5868C40.5056 21.7823 40.2929 22.2439 40.2929 22.2439C40.2929 22.2439 39.317 24.8343 38.0139 27.0391C35.2659 31.6877 34.1645 31.9321 33.7174 31.6443C32.6705 30.9709 32.9323 28.9398 32.9323 27.4953C32.9323 22.9933 33.6193 21.1143 31.5964 20.631C30.9258 20.4681 30.4351 20.3594 28.7176 20.3431C26.5148 20.3214 24.6501 20.3486 23.5924 20.8645C22.8945 21.2066 22.3492 21.9723 22.6818 22.0158C23.0907 22.0647 24.0122 22.2602 24.5029 22.9281C25.1354 23.7807 25.1136 25.7086 25.1136 25.7086C25.1136 25.7086 25.4789 31.0089 24.263 31.6714C23.4288 32.1222 22.2893 31.199 19.8411 26.9794C18.5871 24.8234 17.6329 22.4339 17.6329 22.4339C17.6329 22.4339 17.453 21.9886 17.1259 21.7497C16.7333 21.4619 16.1772 21.3695 16.1772 21.3695L10.3159 21.4076C10.3159 21.4076 9.43258 21.4293 9.1109 21.8094C8.82192 22.1515 9.08909 22.8521 9.08909 22.8521C9.08909 22.8521 13.68 33.5504 18.8761 38.9431C23.6469 43.8904 29.0611 43.5645 29.0611 43.5645H31.5146C31.5146 43.5645 32.2562 43.4831 32.6324 43.0758C32.9813 42.7065 32.965 42.0059 32.965 42.0059C32.965 42.0059 32.9159 38.7258 34.448 38.2425C35.9529 37.7646 37.8885 41.4086 39.9385 42.8151C41.487 43.8741 42.6647 43.6406 42.6647 43.6406L48.1498 43.5645C48.1498 43.5645 51.0177 43.3908 49.6547 41.1425Z" fill="#14B487"/>
</svg>
