<?xml version="1.0" encoding="UTF-8"?>
<!DOCTYPE svg PUBLIC "-//W3C//DTD SVG 1.1//EN" "http://www.w3.org/Graphics/SVG/1.1/DTD/svg11.dtd">
<!-- Creator: CorelDRAW 2020 (64-Bit) -->
<svg xmlns="http://www.w3.org/2000/svg" xml:space="preserve" width="361px" height="65px" version="1.1" style="shape-rendering:geometricPrecision; text-rendering:geometricPrecision; image-rendering:optimizeQuality; fill-rule:evenodd; clip-rule:evenodd"
viewBox="0 0 258.462 46.748"
 xmlns:xlink="http://www.w3.org/1999/xlink"
 xmlns:xodm="http://www.corel.com/coreldraw/odm/2003">
 <defs>
  <style type="text/css">
   <![CDATA[
    .fil0 {fill:#2B2A29;fill-rule:nonzero}
    .fil1 {fill:#119F77;fill-rule:nonzero}
   ]]>
  </style>
 </defs>
 <g id="Слой_x0020_1">
  <metadata id="CorelCorpID_0Corel-Layer"/>
  <g id="_2135692733120">
   <path class="fil0" d="M55.565 29.709c-0.154,0 -0.288,-0.056 -0.401,-0.169 -0.113,-0.112 -0.169,-0.246 -0.169,-0.401l0 -13.642c0,-0.155 0.056,-0.288 0.169,-0.401 0.113,-0.113 0.247,-0.169 0.401,-0.169l9.229 0c0.154,0 0.288,0.056 0.401,0.169 0.112,0.113 0.169,0.246 0.169,0.401l0 1.499c0,0.155 -0.057,0.289 -0.169,0.402 -0.113,0.112 -0.247,0.169 -0.401,0.169l-6.948 0 0 3.188 3.991 0c0.676,0 1.288,0.109 1.837,0.328 0.55,0.218 1.018,0.521 1.405,0.908 0.387,0.387 0.689,0.855 0.908,1.404 0.218,0.549 0.327,1.161 0.327,1.837 0,0.62 -0.098,1.2 -0.296,1.742 -0.197,0.543 -0.485,1.018 -0.865,1.426 -0.381,0.408 -0.848,0.728 -1.405,0.961 -0.556,0.232 -1.193,0.348 -1.911,0.348l-6.272 0zm2.281 -2.639l3.548 0c0.718,0 1.242,-0.18 1.573,-0.539 0.331,-0.359 0.496,-0.792 0.496,-1.299 0,-0.507 -0.165,-0.939 -0.496,-1.298 -0.331,-0.359 -0.855,-0.539 -1.573,-0.539l-3.548 0 0 3.675zm10.369 -6.631c0.042,-0.789 0.193,-1.531 0.454,-2.228 0.26,-0.697 0.644,-1.303 1.151,-1.816 0.506,-0.514 1.14,-0.923 1.9,-1.225 0.76,-0.303 1.662,-0.454 2.703,-0.454 1.028,0 1.922,0.148 2.682,0.443 0.76,0.296 1.394,0.704 1.901,1.225 0.506,0.521 0.894,1.126 1.161,1.816 0.268,0.69 0.423,1.436 0.465,2.239 0.014,0.267 0.024,0.563 0.032,0.887 0.007,0.323 0.01,0.658 0.01,1.003 0,0.345 -0.003,0.679 -0.01,1.003 -0.008,0.323 -0.018,0.619 -0.032,0.887 -0.042,0.788 -0.194,1.531 -0.454,2.228 -0.26,0.697 -0.644,1.302 -1.151,1.816 -0.507,0.514 -1.144,0.918 -1.911,1.214 -0.768,0.296 -1.665,0.444 -2.693,0.444 -1.041,0 -1.943,-0.148 -2.703,-0.444 -0.76,-0.296 -1.394,-0.7 -1.9,-1.214 -0.507,-0.514 -0.891,-1.119 -1.151,-1.816 -0.261,-0.697 -0.412,-1.44 -0.454,-2.228 -0.014,-0.268 -0.025,-0.564 -0.032,-0.887 -0.007,-0.324 -0.011,-0.658 -0.011,-1.003 0,-0.345 0.004,-0.68 0.011,-1.003 0.007,-0.324 0.018,-0.62 0.032,-0.887zm9.566 0.105c-0.056,-1.013 -0.384,-1.798 -0.982,-2.354 -0.598,-0.557 -1.39,-0.835 -2.376,-0.835 -0.985,0 -1.777,0.278 -2.375,0.835 -0.599,0.556 -0.926,1.341 -0.982,2.354 -0.028,0.535 -0.042,1.13 -0.042,1.785 0,0.654 0.014,1.249 0.042,1.784 0.056,1.014 0.383,1.795 0.982,2.344 0.598,0.549 1.39,0.824 2.375,0.824 0.986,0 1.778,-0.275 2.376,-0.824 0.598,-0.549 0.926,-1.33 0.982,-2.344 0.028,-0.535 0.042,-1.13 0.042,-1.784 0,-0.655 -0.014,-1.25 -0.042,-1.785zm9.524 -2.977l0 8.024c0,0.634 -0.088,1.215 -0.264,1.742 -0.176,0.528 -0.44,0.986 -0.792,1.373 -0.352,0.387 -0.799,0.686 -1.341,0.898 -0.542,0.211 -1.172,0.317 -1.89,0.317l-0.528 0c-0.155,0 -0.288,-0.057 -0.401,-0.17 -0.113,-0.112 -0.169,-0.246 -0.169,-0.401l0 -1.499c0,-0.155 0.056,-0.289 0.169,-0.401 0.113,-0.113 0.246,-0.169 0.401,-0.169l0.211 0c0.563,0 0.996,-0.169 1.299,-0.507 0.303,-0.338 0.454,-0.789 0.454,-1.352l0 -9.925c0,-0.155 0.056,-0.288 0.169,-0.401 0.113,-0.113 0.246,-0.169 0.401,-0.169l9.588 0c0.155,0 0.288,0.056 0.401,0.169 0.112,0.113 0.169,0.246 0.169,0.401l0 13.642c0,0.155 -0.057,0.289 -0.169,0.401 -0.113,0.113 -0.246,0.169 -0.401,0.169l-1.711 0c-0.155,0 -0.288,-0.056 -0.401,-0.169 -0.113,-0.112 -0.169,-0.246 -0.169,-0.401l0 -11.572 -5.026 0zm11.171 -2.07c0,-0.155 0.056,-0.288 0.169,-0.401 0.113,-0.113 0.247,-0.169 0.401,-0.169l1.711 0c0.155,0 0.288,0.056 0.401,0.169 0.113,0.113 0.169,0.246 0.169,0.401l0 5.258 3.991 0c0.676,0 1.288,0.109 1.837,0.328 0.55,0.218 1.018,0.521 1.405,0.908 0.387,0.387 0.69,0.855 0.908,1.404 0.218,0.549 0.327,1.161 0.327,1.837 0,0.62 -0.098,1.2 -0.296,1.742 -0.196,0.543 -0.485,1.018 -0.865,1.426 -0.38,0.408 -0.848,0.728 -1.405,0.961 -0.556,0.232 -1.193,0.348 -1.911,0.348l-6.272 0c-0.154,0 -0.288,-0.056 -0.401,-0.169 -0.113,-0.112 -0.169,-0.246 -0.169,-0.401l0 -13.642zm2.851 11.573l3.569 0c0.718,0 1.239,-0.18 1.563,-0.539 0.323,-0.359 0.485,-0.792 0.485,-1.299 0,-0.507 -0.162,-0.939 -0.485,-1.298 -0.324,-0.359 -0.845,-0.539 -1.563,-0.539l-3.569 0 0 3.675zm11.298 2.639c-0.155,0 -0.289,-0.056 -0.401,-0.169 -0.113,-0.112 -0.169,-0.246 -0.169,-0.401l0 -13.642c0,-0.155 0.056,-0.288 0.169,-0.401 0.112,-0.113 0.246,-0.169 0.401,-0.169l1.71 0c0.155,0 0.289,0.056 0.402,0.169 0.112,0.113 0.169,0.246 0.169,0.401l0 11.573 3.716 0 0 -11.573c0,-0.155 0.056,-0.288 0.169,-0.401 0.113,-0.113 0.246,-0.169 0.401,-0.169l1.711 0c0.155,0 0.289,0.056 0.401,0.169 0.113,0.113 0.169,0.246 0.169,0.401l0 11.573 3.717 0 0 -11.573c0,-0.155 0.056,-0.288 0.169,-0.401 0.112,-0.113 0.246,-0.169 0.401,-0.169l1.711 0c0.155,0 0.288,0.056 0.401,0.169 0.112,0.113 0.169,0.246 0.169,0.401l0 13.642c0,0.155 -0.057,0.289 -0.169,0.401 -0.113,0.113 -0.246,0.169 -0.401,0.169l-14.846 0zm20.759 0c0.239,0 0.422,-0.063 0.548,-0.19 0.127,-0.127 0.219,-0.225 0.275,-0.296l5.913 -8.784 0 8.7c0,0.155 0.056,0.289 0.169,0.401 0.113,0.113 0.246,0.169 0.401,0.169l1.711 0c0.154,0 0.288,-0.056 0.401,-0.169 0.112,-0.112 0.169,-0.246 0.169,-0.401l0 -13.642c0,-0.155 -0.057,-0.288 -0.169,-0.401 -0.113,-0.113 -0.247,-0.169 -0.401,-0.169l-1.479 0c-0.239,0 -0.422,0.063 -0.549,0.19 -0.127,0.127 -0.218,0.225 -0.274,0.296l-5.913 8.785 0 -8.701c0,-0.155 -0.056,-0.288 -0.169,-0.401 -0.113,-0.113 -0.246,-0.169 -0.401,-0.169l-1.711 0c-0.155,0 -0.288,0.056 -0.401,0.169 -0.113,0.113 -0.169,0.246 -0.169,0.401l0 13.642c0,0.155 0.056,0.289 0.169,0.401 0.113,0.113 0.246,0.169 0.401,0.169l1.479 0zm22.722 -2.639c0.155,0 0.288,0.056 0.401,0.169 0.113,0.112 0.169,0.246 0.169,0.401l0 1.499c0,0.155 -0.056,0.289 -0.169,0.401 -0.113,0.113 -0.246,0.169 -0.401,0.169l-9.271 0c-0.155,0 -0.288,-0.056 -0.401,-0.169 -0.113,-0.112 -0.169,-0.246 -0.169,-0.401l0 -13.642c0,-0.155 0.056,-0.288 0.169,-0.401 0.113,-0.113 0.246,-0.169 0.401,-0.169l9.102 0c0.155,0 0.289,0.056 0.401,0.169 0.113,0.113 0.169,0.246 0.169,0.401l0 1.499c0,0.155 -0.056,0.289 -0.169,0.402 -0.112,0.112 -0.246,0.169 -0.401,0.169l-6.821 0 0 3.357 6.356 0c0.155,0 0.289,0.057 0.402,0.169 0.112,0.113 0.169,0.247 0.169,0.402l0 1.499c0,0.155 -0.057,0.288 -0.169,0.401 -0.113,0.113 -0.247,0.169 -0.402,0.169l-6.356 0 0 3.506 6.99 0zm19.238 -12.143c0.155,0 0.289,0.056 0.401,0.169 0.113,0.113 0.169,0.246 0.169,0.401l0 11.573 0.697 0c0.155,0 0.288,0.056 0.401,0.169 0.113,0.112 0.169,0.246 0.169,0.401l0 3.822c0,0.155 -0.056,0.288 -0.169,0.401 -0.113,0.113 -0.246,0.169 -0.401,0.169l-1.711 0c-0.155,0 -0.288,-0.056 -0.401,-0.169 -0.113,-0.113 -0.169,-0.246 -0.169,-0.401l0 -1.753 -8.637 0 0 1.753c0,0.155 -0.056,0.288 -0.169,0.401 -0.113,0.113 -0.246,0.169 -0.401,0.169l-1.711 0c-0.154,0 -0.288,-0.056 -0.401,-0.169 -0.113,-0.113 -0.169,-0.246 -0.169,-0.401l0 -3.822c0,-0.155 0.049,-0.285 0.148,-0.391 0.099,-0.105 0.225,-0.165 0.38,-0.179l0.296 0c0.535,0 0.922,-0.201 1.161,-0.602 0.24,-0.402 0.359,-1.032 0.359,-1.89l0 -9.081c0,-0.155 0.057,-0.288 0.169,-0.401 0.113,-0.113 0.247,-0.169 0.401,-0.169l9.588 0zm-2.281 12.143l0 -9.503 -5.026 0 0 7.222c0,0.155 -0.003,0.338 -0.01,0.549 -0.007,0.211 -0.029,0.422 -0.064,0.633 -0.035,0.212 -0.081,0.416 -0.137,0.613 -0.056,0.197 -0.134,0.359 -0.232,0.486l5.469 0zm16.535 0c0.155,0 0.289,0.056 0.402,0.169 0.112,0.112 0.168,0.246 0.168,0.401l0 1.499c0,0.155 -0.056,0.289 -0.168,0.401 -0.113,0.113 -0.247,0.169 -0.402,0.169l-9.27 0c-0.155,0 -0.289,-0.056 -0.402,-0.169 -0.112,-0.112 -0.169,-0.246 -0.169,-0.401l0 -13.642c0,-0.155 0.057,-0.288 0.169,-0.401 0.113,-0.113 0.247,-0.169 0.402,-0.169l9.101 0c0.155,0 0.289,0.056 0.401,0.169 0.113,0.113 0.17,0.246 0.17,0.401l0 1.499c0,0.155 -0.057,0.289 -0.17,0.402 -0.112,0.112 -0.246,0.169 -0.401,0.169l-6.821 0 0 3.357 6.357 0c0.155,0 0.288,0.057 0.401,0.169 0.113,0.113 0.169,0.247 0.169,0.402l0 1.499c0,0.155 -0.056,0.288 -0.169,0.401 -0.113,0.113 -0.246,0.169 -0.401,0.169l-6.357 0 0 3.506 6.99 0zm9.419 -12.143c1.703,0 3.026,0.401 3.97,1.204 0.943,0.802 1.415,1.978 1.415,3.526 0,1.549 -0.472,2.732 -1.415,3.548 -0.944,0.817 -2.267,1.225 -3.97,1.225l-3.379 0 0 4.709c0,0.155 -0.056,0.289 -0.169,0.401 -0.113,0.113 -0.246,0.169 -0.402,0.169l-1.71 0c-0.155,0 -0.288,-0.056 -0.401,-0.169 -0.113,-0.112 -0.169,-0.246 -0.169,-0.401l0 -13.642c0,-0.155 0.056,-0.288 0.169,-0.401 0.113,-0.113 0.246,-0.169 0.401,-0.169l5.66 0zm-3.379 6.863l3.273 0c0.803,0 1.443,-0.158 1.922,-0.475 0.478,-0.317 0.718,-0.869 0.718,-1.658 0,-0.788 -0.24,-1.334 -0.718,-1.636 -0.479,-0.303 -1.119,-0.454 -1.922,-0.454l-3.273 0 0 4.223zm20.906 5.28c0.155,0 0.289,0.056 0.401,0.169 0.113,0.112 0.169,0.246 0.169,0.401l0 1.499c0,0.155 -0.056,0.289 -0.169,0.401 -0.112,0.113 -0.246,0.169 -0.401,0.169l-9.27 0c-0.155,0 -0.289,-0.056 -0.402,-0.169 -0.112,-0.112 -0.169,-0.246 -0.169,-0.401l0 -13.642c0,-0.155 0.057,-0.288 0.169,-0.401 0.113,-0.113 0.247,-0.169 0.402,-0.169l9.101 0c0.155,0 0.289,0.056 0.401,0.169 0.113,0.113 0.169,0.246 0.169,0.401l0 1.499c0,0.155 -0.056,0.289 -0.169,0.402 -0.112,0.112 -0.246,0.169 -0.401,0.169l-6.821 0 0 3.357 6.357 0c0.154,0 0.288,0.057 0.401,0.169 0.112,0.113 0.169,0.247 0.169,0.402l0 1.499c0,0.155 -0.057,0.288 -0.169,0.401 -0.113,0.113 -0.247,0.169 -0.401,0.169l-6.357 0 0 3.506 6.99 0zm3.759 2.639c-0.155,0 -0.289,-0.056 -0.401,-0.169 -0.113,-0.112 -0.169,-0.246 -0.169,-0.401l0 -13.642c0,-0.155 0.056,-0.288 0.169,-0.401 0.112,-0.113 0.246,-0.169 0.401,-0.169l6.23 0c0.901,0 1.654,0.137 2.259,0.412 0.606,0.274 1.091,0.619 1.457,1.034 0.366,0.416 0.631,0.866 0.792,1.352 0.162,0.486 0.243,0.94 0.243,1.362 0,0.422 -0.056,0.799 -0.169,1.13 -0.112,0.331 -0.249,0.612 -0.412,0.845 -0.161,0.232 -0.323,0.425 -0.485,0.58 -0.162,0.155 -0.292,0.261 -0.391,0.317 0.437,0.296 0.838,0.715 1.204,1.256 0.366,0.543 0.549,1.229 0.549,2.059 0,0.536 -0.099,1.067 -0.296,1.595 -0.197,0.528 -0.486,1.003 -0.866,1.425 -0.38,0.423 -0.855,0.764 -1.425,1.025 -0.57,0.26 -1.228,0.39 -1.975,0.39l-6.715 0zm8.13 -10.516c0,-0.535 -0.169,-0.94 -0.507,-1.215 -0.338,-0.274 -0.872,-0.411 -1.604,-0.411l-3.738 0 0 3.252 3.738 0c0.732,0 1.266,-0.138 1.604,-0.412 0.338,-0.275 0.507,-0.679 0.507,-1.214zm-5.849 7.877l3.907 0c0.774,0 1.34,-0.166 1.699,-0.497 0.359,-0.331 0.539,-0.763 0.539,-1.299 0,-0.534 -0.187,-0.971 -0.56,-1.309 -0.373,-0.338 -0.932,-0.507 -1.678,-0.507l-3.907 0 0 3.612zm11.635 -11.573c0,-0.155 0.057,-0.288 0.17,-0.401 0.112,-0.113 0.246,-0.169 0.401,-0.169l1.71 0c0.155,0 0.289,0.056 0.401,0.169 0.113,0.113 0.169,0.246 0.169,0.401l0 5.258 3.992 0c0.675,0 1.288,0.109 1.837,0.328 0.549,0.218 1.017,0.521 1.404,0.908 0.387,0.387 0.69,0.855 0.908,1.404 0.219,0.549 0.328,1.161 0.328,1.837 0,0.62 -0.099,1.2 -0.296,1.742 -0.197,0.543 -0.486,1.018 -0.866,1.426 -0.38,0.408 -0.848,0.728 -1.404,0.961 -0.556,0.232 -1.193,0.348 -1.911,0.348l-6.272 0c-0.155,0 -0.289,-0.056 -0.401,-0.169 -0.113,-0.112 -0.17,-0.246 -0.17,-0.401l0 -13.642zm2.851 11.573l3.569 0c0.718,0 1.239,-0.18 1.563,-0.539 0.324,-0.359 0.486,-0.792 0.486,-1.299 0,-0.507 -0.162,-0.939 -0.486,-1.298 -0.324,-0.359 -0.845,-0.539 -1.563,-0.539l-3.569 0 0 3.675zm15.374 -12.143c-1.76,0 -3.097,0.408 -4.012,1.225 -0.915,0.816 -1.373,1.95 -1.373,3.4 0,1.027 0.236,1.904 0.707,2.629 0.472,0.725 1.165,1.263 2.08,1.615l-2.914 5.216c-0.042,0.085 -0.063,0.162 -0.063,0.233 0,0.126 0.046,0.235 0.137,0.327 0.092,0.091 0.201,0.137 0.327,0.137l1.795 0c0.282,0 0.49,-0.067 0.623,-0.2 0.134,-0.134 0.229,-0.257 0.285,-0.37l2.767 -4.92 2.809 0 0 4.92c0,0.155 0.056,0.289 0.168,0.401 0.113,0.113 0.247,0.169 0.402,0.169l1.71 0c0.155,0 0.289,-0.056 0.401,-0.169 0.113,-0.112 0.169,-0.246 0.169,-0.401l0 -13.642c0,-0.155 -0.056,-0.288 -0.169,-0.401 -0.112,-0.113 -0.246,-0.169 -0.401,-0.169l-5.448 0zm3.168 6.652l-3.063 0c-0.802,0 -1.443,-0.141 -1.921,-0.422 -0.479,-0.282 -0.718,-0.817 -0.718,-1.605 0,-0.789 0.239,-1.317 0.718,-1.584 0.478,-0.268 1.119,-0.401 1.921,-0.401l3.063 0 0 4.012z"/>
   <path class="fil1" d="M21.494 2.21c-0.764,0 -1.498,0.192 -2.203,0.48 -0.764,0.31 -1.506,0.735 -2.223,1.157l-10.228 6.06 -0.493 0.336c-2.091,1.421 -4.129,2.805 -4.129,8.565l-0.017 4.566 0.012 4.565c0.005,5.706 2.004,7.119 4.074,8.525l0.591 0.399 10.19 6.038c0.717,0.422 1.46,0.847 2.223,1.158 0.705,0.287 1.439,0.479 2.203,0.479 0.765,0 1.499,-0.192 2.204,-0.479 0.763,-0.311 1.505,-0.736 2.222,-1.158l10.191 -6.038 0.591 -0.399c2.07,-1.406 4.069,-2.819 4.069,-8.525l0.017 -4.565 -0.013 -4.566c-0.004,-5.76 -2.042,-7.144 -4.134,-8.565l-0.492 -0.336 -10.229 -6.06c-0.717,-0.422 -1.458,-0.847 -2.222,-1.157 -0.705,-0.288 -1.439,-0.48 -2.204,-0.48zm1.563 32.958l-0.009 -10.429c0.23,-0.068 0.455,-0.148 0.676,-0.238 0.61,-0.248 1.161,-0.562 1.687,-0.872l6.374 -3.777c0.172,-0.114 0.346,-0.229 0.512,-0.351 0.078,-0.053 0.155,-0.106 0.233,-0.16 0.04,0.353 0.062,0.747 0.062,1.189l0.006 0 0.008 2.844 -0.008 2.843 -0.006 0c0,3.03 -1.015,3.8 -2.083,4.527l-0.381 0.256 -6.338 3.755c-0.241,0.142 -0.487,0.285 -0.733,0.413zm-3.189 -10.451l0.01 10.422c-0.228,-0.12 -0.456,-0.252 -0.679,-0.384l-6.338 -3.755 -0.381 -0.256c-1.068,-0.727 -2.083,-1.497 -2.083,-4.527l-0.007 0 -0.007 -2.843 0.007 -2.844 0.007 0c0,-0.442 0.022,-0.836 0.062,-1.188 0.078,0.053 0.155,0.107 0.233,0.16 0.166,0.121 0.34,0.237 0.512,0.35l6.374 3.777c0.526,0.31 1.077,0.624 1.687,0.872 0.197,0.08 0.398,0.153 0.603,0.216zm1.626 -2.939c-0.346,0 -0.692,-0.093 -1.032,-0.231 -0.418,-0.17 -0.848,-0.417 -1.263,-0.661l-6.338 -3.755 -0.385 -0.259c-0.205,-0.139 -0.408,-0.28 -0.599,-0.428 0.194,-0.159 0.397,-0.3 0.603,-0.44l0.381 -0.256 6.338 -3.756c0.415,-0.245 0.845,-0.49 1.263,-0.661 0.34,-0.138 0.686,-0.23 1.032,-0.23 0.347,0 0.693,0.092 1.033,0.23 0.418,0.171 0.847,0.416 1.263,0.661l6.338 3.756 0.381 0.256c0.205,0.14 0.409,0.281 0.603,0.44 -0.191,0.148 -0.395,0.289 -0.601,0.429l-0.383 0.258 -6.338 3.755c-0.416,0.244 -0.845,0.491 -1.263,0.661 -0.34,0.138 -0.686,0.231 -1.033,0.231zm-14.291 1.596l0.008 2.843 -0.006 0c0,4.705 1.708,5.944 3.489,7.155 0.165,0.122 0.338,0.237 0.51,0.35l6.374 3.776c0.526,0.31 1.077,0.624 1.687,0.873 0.69,0.28 1.426,0.468 2.229,0.468 0.804,0 1.54,-0.188 2.23,-0.468 0.61,-0.249 1.161,-0.563 1.687,-0.873l6.374 -3.776c0.172,-0.113 0.344,-0.228 0.51,-0.35 1.781,-1.211 3.489,-2.45 3.489,-7.155l-0.006 0 0.007 -2.843 -0.007 -2.844 0.006 0c0,-4.705 -1.708,-5.943 -3.489,-7.154 -0.166,-0.122 -0.338,-0.237 -0.51,-0.35l-6.374 -3.777c-0.526,-0.31 -1.077,-0.624 -1.687,-0.872 -0.69,-0.28 -1.426,-0.468 -2.23,-0.468 -0.803,0 -1.539,0.188 -2.229,0.468 -0.61,0.248 -1.161,0.562 -1.687,0.872l-6.374 3.777c-0.172,0.113 -0.345,0.228 -0.51,0.35 -1.781,1.211 -3.489,2.449 -3.489,7.154l0.006 0 -0.008 2.844zm14.291 23.374c-1.081,0 -2.085,-0.258 -3.032,-0.643 -0.889,-0.362 -1.719,-0.836 -2.515,-1.306 -3.423,-2.027 -7.75,-4.225 -10.894,-6.514 -2.565,-1.741 -5.045,-3.48 -5.045,-10.346l-0.008 -4.565 0.012 -4.566c-0.004,-6.919 2.516,-8.63 5.101,-10.385l0.598 -0.41 10.236 -6.064c0.796,-0.47 1.626,-0.944 2.515,-1.305 0.946,-0.386 1.951,-0.644 3.032,-0.644 1.082,0 2.087,0.258 3.033,0.644 0.889,0.362 1.719,0.835 2.515,1.305l10.235 6.064 0.599 0.41c2.585,1.755 5.105,3.466 5.105,10.385l0.008 4.566 -0.013 4.565c0.005,6.866 -2.475,8.605 -5.041,10.346 -3.144,2.29 -7.47,4.487 -10.893,6.514 -0.796,0.47 -1.625,0.943 -2.515,1.306 -0.947,0.385 -1.951,0.643 -3.033,0.643z"/>
  </g>
 </g>
</svg>
