<svg width="22" height="24" viewBox="0 0 22 24" fill="none" xmlns="http://www.w3.org/2000/svg">
<path d="M11 1.13458C10.6091 1.13458 10.2335 1.2334 9.87279 1.38086C9.48213 1.54024 9.10224 1.7583 8.7357 1.9751L3.50308 5.08626L3.2511 5.25898C2.18136 5.98806 1.13848 6.6988 1.13848 9.65619L1.12994 12.0002L1.13623 14.3438C1.13848 17.273 2.16128 17.9983 3.22019 18.7201L3.52239 18.9254L8.7357 22.0249C9.10224 22.2418 9.48235 22.4598 9.87279 22.6194C10.2335 22.7667 10.6089 22.8655 11 22.8655C11.3912 22.8655 11.7665 22.7667 12.1273 22.6194C12.5177 22.4598 12.8976 22.2418 13.2644 22.0249L18.4777 18.9254L18.7799 18.7201C19.8388 17.9983 20.8616 17.273 20.8616 14.3438L20.8701 12.0002L20.8638 9.65619C20.8616 6.6988 19.8188 5.98806 18.749 5.25898L18.497 5.08626L13.2644 1.9751C12.8976 1.7583 12.518 1.54024 12.1273 1.38086C11.7665 1.2334 11.391 1.13458 11 1.13458ZM11.7994 18.0549L11.7947 12.7008C11.9126 12.666 12.0278 12.6249 12.1406 12.5789C12.4527 12.4513 12.7345 12.2899 13.0036 12.1308L16.2645 10.192C16.3527 10.1335 16.4414 10.0743 16.5266 10.0116C16.5663 9.98438 16.606 9.95721 16.6456 9.92976C16.6662 10.111 16.6774 10.3131 16.6774 10.5402H16.6806L16.6846 11.9999L16.6806 13.4598H16.6774C16.6774 15.0151 16.158 15.4106 15.6116 15.7838L15.4169 15.9151L12.1745 17.8428C12.051 17.9159 11.9251 17.9892 11.7994 18.0549ZM10.1682 12.6895L10.1729 18.0401C10.0564 17.9783 9.93992 17.9105 9.82552 17.8428L6.58314 15.9151L6.38844 15.7838C5.84197 15.4106 5.32269 15.0151 5.32269 13.4598H5.31941L5.31542 11.9999L5.31941 10.5402H5.32269C5.32269 10.3131 5.33385 10.111 5.35448 9.92981C5.3942 9.95743 5.43408 9.98477 5.47396 10.0121C5.55886 10.0745 5.64754 10.1338 5.73546 10.192L8.99644 12.1308C9.26554 12.2899 9.54739 12.4513 9.85944 12.5789C9.96032 12.62 10.0631 12.6572 10.1682 12.6895ZM11 11.1806C10.8226 11.1806 10.6455 11.133 10.4719 11.0621C10.2581 10.9746 10.0383 10.8483 9.82552 10.7225L6.58314 8.7948L6.38642 8.66221C6.28149 8.59046 6.17766 8.51843 6.07968 8.44217C6.1793 8.36064 6.28335 8.28795 6.38844 8.21614L6.58314 8.08482L9.82552 6.15688C10.0383 6.03105 10.2581 5.90499 10.4719 5.81748C10.6455 5.74666 10.8226 5.69901 11 5.69901C11.1771 5.69901 11.3545 5.74666 11.5281 5.81748C11.7419 5.90499 11.9617 6.03105 12.1745 6.15688L15.4169 8.08482L15.6116 8.21614C15.7167 8.28795 15.8208 8.36059 15.9203 8.44217C15.8223 8.51843 15.7181 8.59051 15.6129 8.66243L15.4169 8.7948L12.1745 10.7225C11.9617 10.8483 11.7419 10.9748 11.5281 11.0621C11.3545 11.133 11.1771 11.1806 11 11.1806ZM3.68892 11.9999L3.69297 13.4598H3.68969C3.68969 15.8753 4.56347 16.5112 5.47472 17.1329C5.55936 17.1954 5.64754 17.2544 5.73546 17.3124L8.99644 19.2512C9.26554 19.4103 9.54739 19.5716 9.85944 19.6992C10.2124 19.8432 10.589 19.9397 11 19.9397C11.411 19.9397 11.7876 19.8432 12.1406 19.6992C12.4527 19.5716 12.7345 19.4103 13.0036 19.2512L16.2645 17.3124C16.3525 17.2544 16.4406 17.1954 16.5253 17.1329C17.4365 16.5112 18.3103 15.8753 18.3103 13.4598H18.3071L18.3111 11.9999L18.3071 10.5402H18.3103C18.3103 8.12468 17.4365 7.48877 16.5253 6.86707C16.4406 6.80454 16.3525 6.74558 16.2645 6.68755L13.0036 4.74851C12.7345 4.58947 12.4527 4.42833 12.1406 4.30075C11.7876 4.1568 11.411 4.06028 11 4.06028C10.589 4.06028 10.2124 4.1568 9.85944 4.30075C9.54739 4.42833 9.26554 4.58947 8.99644 4.74851L5.73546 6.68755C5.64754 6.74558 5.55936 6.80454 5.47472 6.86707C4.56347 7.48877 3.68969 8.12468 3.68969 10.5402H3.69297L3.68892 11.9999ZM11 24C10.4466 24 9.93308 23.8674 9.4487 23.6698C8.9937 23.4839 8.56912 23.2406 8.16188 22.9996C6.41109 21.9586 4.19748 20.8304 2.58909 19.6552C1.27689 18.7615 0.00795457 17.8688 0.00795457 14.3438L0.00390625 12.0002L0.0101976 9.65619C0.00795457 6.10379 1.29702 5.22544 2.61945 4.32413L2.9257 4.11359L8.16188 1.0004C8.5694 0.759165 8.99398 0.516065 9.4487 0.330556C9.93281 0.13264 10.4466 0 11 0C11.5535 0 12.0673 0.13264 12.5514 0.330556C13.0064 0.51634 13.4307 0.759385 13.8382 1.0004L19.0744 4.11359L19.3806 4.32413C20.7031 5.22544 21.9922 6.10379 21.9922 9.65619L21.9962 12.0002L21.9899 14.3438C21.9922 17.8688 20.7232 18.7615 19.411 19.6552C17.8024 20.8306 15.5893 21.9586 13.8382 22.9996C13.4307 23.2406 13.0066 23.4837 12.5514 23.6698C12.067 23.8674 11.5535 24 11 24Z" fill="#0EA57A"/>
</svg>
